<?xml version="1.0" encoding="UTF-8"?>
<svg width="42px" height="40px" viewBox="0 0 42 40" version="1.1" xmlns="http://www.w3.org/2000/svg" xmlns:xlink="http://www.w3.org/1999/xlink">
    <!-- Generator: Sketch 51.2 (57519) - http://www.bohemiancoding.com/sketch -->
    <title>Banks</title>
    <desc>Created with Sketch.</desc>
    <defs></defs>
    <g id="NUMU-Prototype" stroke="none" stroke-width="1" fill="none" fill-rule="evenodd">
        <g id="Home-Page-/-Categories" transform="translate(-82.000000, -470.000000)">
            <g id="BANKS" transform="translate(82.000000, 470.000000)">
                <path d="M20.2226747,0.144327241 L0.606447928,11.0652371 C-0.448404843,11.6524552 -0.0400809954,13.2894522 1.16103124,13.2894522 L40.3936788,13.2894522 C41.594791,13.2894522 42.0029209,11.6524552 40.9482621,11.0652371 L21.3320353,0.144327241 C20.9861724,-0.0481090803 20.5683436,-0.0481090803 20.2226747,0.144327241" id="Fill-1" fill="#4CA585"></path>
                <path d="M4.80823133,33.7227074 L3.27095509,33.7227074 C2.8046318,33.7227074 2.42307692,33.3328802 2.42307692,32.8564467 L2.42307692,15.2660625 C2.42307692,14.7898272 2.8046318,14.4 3.27095509,14.4 L4.80823133,14.4 C5.27455462,14.4 5.65610949,14.7898272 5.65610949,15.2660625 L5.65610949,32.8564467 C5.65610949,33.3328802 5.27455462,33.7227074 4.80823133,33.7227074" id="Fill-3" fill="#4CA585"></path>
                <path d="M37.9236159,33.7227074 L36.3863397,33.7227074 C35.9200164,33.7227074 35.5384615,33.3328802 35.5384615,32.8564467 L35.5384615,15.2660625 C35.5384615,14.7898272 35.9200164,14.4 36.3863397,14.4 L37.9236159,14.4 C38.3899392,14.4 38.7714941,14.7898272 38.7714941,15.2660625 L38.7714941,32.8564467 C38.7714941,33.3328802 38.3899392,33.7227074 37.9236159,33.7227074" id="Fill-5" fill="#4CA585"></path>
                <path d="M31.4620775,33.7227074 L29.9248012,33.7227074 C29.4584779,33.7227074 29.0769231,33.3328802 29.0769231,32.8564467 L29.0769231,15.2660625 C29.0769231,14.7898272 29.4584779,14.4 29.9248012,14.4 L31.4620775,14.4 C31.9284008,14.4 32.3099556,14.7898272 32.3099556,15.2660625 L32.3099556,32.8564467 C32.3099556,33.3328802 31.9284008,33.7227074 31.4620775,33.7227074" id="Fill-7" fill="#4CA585"></path>
                <path d="M11.2697698,33.7227074 L9.73249355,33.7227074 C9.26617026,33.7227074 8.88461538,33.3328802 8.88461538,32.8564467 L8.88461538,15.2660625 C8.88461538,14.7898272 9.26617026,14.4 9.73249355,14.4 L11.2697698,14.4 C11.7360931,14.4 12.117648,14.7898272 12.117648,15.2660625 L12.117648,32.8564467 C12.117648,33.3328802 11.7360931,33.7227074 11.2697698,33.7227074" id="Fill-9" fill="#4CA585"></path>
                <path d="M25.1352898,33.7227074 L15.3863397,33.7227074 C14.9200164,33.7227074 14.5384615,33.3328802 14.5384615,32.8564467 L14.5384615,15.2660625 C14.5384615,14.7898272 14.9200164,14.4 15.3863397,14.4 L25.1352898,14.4 C25.6016131,14.4 25.9831679,14.7898272 25.9831679,15.2660625 L25.9831679,32.8564467 C25.9831679,33.3328802 25.6016131,33.7227074 25.1352898,33.7227074" id="Fill-11" fill="#4CA585"></path>
                <path d="M40.4440406,39.7469234 L0.775912299,39.7469234 C0.349160534,39.7469234 0,39.3901929 0,38.9541889 L0,38.3927346 C0,37.9567306 0.349160534,37.6 0.775912299,37.6 L40.4440406,37.6 C40.8707924,37.6 41.2199529,37.9567306 41.2199529,38.3927346 L41.2199529,38.9541889 C41.2199529,39.3901929 40.8707924,39.7469234 40.4440406,39.7469234" id="Fill-13" fill="#4CA585"></path>
                <path d="M39.1503684,37.3469234 L1.58360461,37.3469234 C1.15685284,37.3469234 0.807692308,36.9901929 0.807692308,36.5541889 L0.807692308,35.9927346 C0.807692308,35.5567306 1.15685284,35.2 1.58360461,35.2 L39.1503684,35.2 C39.5771202,35.2 39.9262807,35.5567306 39.9262807,35.9927346 L39.9262807,36.5541889 C39.9262807,36.9901929 39.5771202,37.3469234 39.1503684,37.3469234" id="Fill-15" fill="#4CA585"></path>
                <path d="M20.7444665,7.83175001 L20.7444665,9.58785531 C21.3489022,9.52047287 21.6794408,9.21150456 21.6794408,8.74834938 C21.6794408,8.32364182 21.4716903,8.06322851 20.7444665,7.83175001 M19.9982328,6.49024491 L19.9982328,4.78229824 C19.3937971,4.84016786 19.0915793,5.16855816 19.0915793,5.59286935 C19.0915793,5.99815491 19.271009,6.24925359 19.9982328,6.49024491 M20.3761021,3.2 C20.6028625,3.2 20.7820982,3.38331987 20.7820982,3.61479837 L20.7820982,3.82705306 C21.3393972,3.89463368 21.8117338,4.07795356 22.2460508,4.35778887 C22.3973537,4.4445933 22.5294527,4.58946555 22.5294527,4.82114223 C22.5294527,5.12000317 22.2933814,5.35167985 22.0006685,5.35167985 C21.9062012,5.35167985 21.8117338,5.32274504 21.7172665,5.26487542 C21.3867279,5.06213355 21.0655002,4.91745948 20.7444665,4.84016786 L20.7444665,6.69298678 C22.1800982,7.05962652 22.7940388,7.64823195 22.7940388,8.68076875 C22.7940388,9.74243855 21.9816586,10.446585 20.7820982,10.5625225 L20.7820982,11.1414169 C20.7820982,11.3730936 20.6028625,11.5564135 20.3761021,11.5564135 C20.1495357,11.5564135 19.9604071,11.3730936 19.9604071,11.1414169 L19.9604071,10.5432987 C19.2521932,10.466007 18.6004268,10.2055937 18.0243119,9.79059718 C17.8636981,9.68437074 17.7692308,9.52998568 17.7692308,9.32744199 C17.7692308,9.02818469 17.9959911,8.796508 18.2887041,8.796508 C18.4021812,8.796508 18.5154644,8.83515382 18.6004268,8.90273444 C19.0444426,9.23092656 19.4787595,9.45289224 19.9982328,9.54920949 L19.9982328,7.64823195 C18.6192427,7.28179039 17.9771753,6.7508564 17.9771753,5.66064816 C17.9771753,4.62811136 18.7798565,3.9138575 19.9604071,3.81754024 L19.9604071,3.61479837 C19.9604071,3.38331987 20.1495357,3.2 20.3761021,3.2" id="Fill-17" fill="#FFFCF7"></path>
            </g>
        </g>
    </g>
</svg>