<?xml version="1.0" encoding="UTF-8"?>
<svg width="29px" height="40px" viewBox="0 0 29 40" version="1.1" xmlns="http://www.w3.org/2000/svg" xmlns:xlink="http://www.w3.org/1999/xlink">
    <!-- Generator: Sketch 51.2 (57519) - http://www.bohemiancoding.com/sketch -->
    <title>BARS &amp; PUBS</title>
    <desc>Created with Sketch.</desc>
    <defs>
        <polygon id="path-1" points="0 0.0581132075 28.9833105 0.0581132075 28.9833105 39.9161426 0 39.9161426"></polygon>
    </defs>
    <g id="NUMU-Prototype" stroke="none" stroke-width="1" fill="none" fill-rule="evenodd">
        <g id="Subcategories---Food" transform="translate(-257.000000, -309.000000)">
            <g id="BARS-&amp;-PUBS" transform="translate(257.000000, 309.000000)">
                <g id="Group-6">
                    <path d="M11.312206,21.3114885 C11.312206,20.8849057 11.7583598,20.535891 12.303659,20.535891 L12.7993855,20.535891 C13.3446846,20.535891 13.7908385,20.8849057 13.7908385,21.3114885 L13.7908385,24.5039413 C13.7938954,24.5013417 13.7972829,24.4990776 13.8003399,24.4963941 L13.8003399,35.2680503 C13.8003399,35.6177358 13.3833513,35.9020126 12.8708527,35.9020126 L12.2511946,35.9020126 C11.738696,35.9020126 11.3217074,35.6177358 11.3217074,35.2680503 L11.3217074,31.9 C11.3160892,31.8667086 11.312206,31.8329979 11.312206,31.7986164 L11.312206,21.3114885 Z M16.4789154,32.8165618 L16.4789154,24.7054507 L16.4789154,21.3815933 C16.4789154,20.9164361 16.9250692,20.535891 17.4703684,20.535891 L17.9660949,20.535891 C18.511394,20.535891 18.9575479,20.9164361 18.9575479,21.3815933 L18.9575479,24.4963941 L18.9575479,32.8165618 L18.9575479,35.2680503 C18.9575479,35.6177358 18.5405593,35.9020126 18.0280607,35.9020126 L17.4084026,35.9020126 C16.895904,35.9020126 16.4789154,35.6177358 16.4789154,35.2680503 L16.4789154,32.8165618 Z M5.03953077,37.4262055 L20.0540123,37.4262055 C20.2817986,37.4262055 20.4671177,37.2380294 20.4671177,37.0069182 L20.4671177,34.9537526 L20.4671177,17.2942977 L20.4671177,16.7151782 C20.02179,16.8002096 19.5657217,16.8430608 19.1026305,16.8430608 C18.012941,16.8430608 16.9603484,16.6058281 16.0247473,16.1527463 C14.9671148,16.9687631 13.6928499,17.4122013 12.3787615,17.4122013 C11.7878556,17.4122013 11.2011632,17.3225577 10.6384311,17.1485535 C10.643884,17.8715723 10.6320692,18.6794549 10.5776219,19.4565618 C10.4208071,21.6955556 9.9582943,23.1486373 9.12225157,24.0293082 C8.96998091,24.1896436 8.80639117,24.3292662 8.63363048,24.4486792 L8.63363048,35.2607547 C8.63363048,35.6143816 8.21664188,35.9020126 7.7041433,35.9020126 L7.08448519,35.9020126 C6.57198661,35.9020126 6.15499801,35.6143816 6.15499801,35.2607547 L6.15499801,24.8113627 C5.67571311,24.6548847 5.24104359,24.3683438 4.88684701,23.9670021 C4.79488974,23.8627673 4.70805499,23.751153 4.62642536,23.6318239 L4.62642536,37.0069182 C4.62642536,37.2380294 4.81174444,37.4262055 5.03953077,37.4262055 Z" id="Fill-1" fill="#4CA585"></path>
                    <g id="Group-5" transform="translate(0.000000, 0.025744)">
                        <mask id="mask-2" fill="white">
                            <use xlink:href="#path-1"></use>
                        </mask>
                        <g id="Clip-4"></g>
                        <path d="M26.917833,27.3611488 C26.917833,29.0659706 25.9930553,30.679304 24.4351521,31.7087379 C23.9557846,31.8958239 23.4640239,32.0782977 23.0059726,32.2406457 L23.0059726,19.1617358 L26.917833,19.1617358 L26.917833,27.3611488 Z M19.1026222,15.056327 C17.8067932,15.056327 16.6363003,14.6159916 15.7972832,13.9076478 C14.9700809,14.9589686 13.7458843,15.6254675 12.3787533,15.6254675 C10.9552746,15.6254675 9.6865453,14.9031195 8.85992137,13.7760755 C8.81472764,13.8195136 8.81885869,14.1766625 8.83736581,14.7283606 C8.84207521,14.8662222 8.84752821,15.016327 8.85331168,15.1766625 C8.85537721,15.2301635 8.85727749,15.2847547 8.85934302,15.3404361 C8.86339145,15.4517987 8.86743989,15.5674382 8.8714057,15.6868512 C8.87545413,15.8062642 8.87933732,15.9294507 8.88297265,16.0558239 C8.88842564,16.2452579 8.89338291,16.4419874 8.89718348,16.644 C8.89842279,16.7114214 8.89957949,16.7793459 8.90057094,16.8477736 C8.93535442,19.244 8.79275043,22.2814004 7.60143704,23.0032453 C7.53335726,23.0444193 7.46189003,23.0782138 7.38670484,23.1037065 C7.3116849,23.1293669 7.23302963,23.1468092 7.15057379,23.1556981 C7.10934587,23.1600587 7.06720912,23.162239 7.02416353,23.162239 C6.90312365,23.162239 6.79051111,23.1445451 6.68566496,23.1106667 C5.18353105,22.6258868 5.29044274,18.8376268 5.46923476,16.6441677 C5.47336581,16.5931824 5.47757949,16.5430356 5.48179316,16.4938113 C5.50294416,16.2476897 5.52442564,16.0247128 5.54408946,15.8325115 C5.59118348,15.3711279 5.62728889,15.0872704 5.6186963,15.0872704 C3.01753675,15.0872704 0.90879886,12.9513375 0.90879886,10.3164528 C0.90879886,7.68165199 3.01753675,5.54580294 5.6186963,5.54580294 C6.04105527,5.54580294 6.45011225,5.602826 6.83950541,5.70848637 C6.89073048,5.58546751 6.94732593,5.46387421 7.01044843,5.34437736 C7.05027179,5.2688218 7.09265641,5.19569811 7.13603248,5.12383229 C7.14900399,5.10253249 7.16230598,5.08173585 7.17544274,5.06077149 C7.20849117,5.00827673 7.24244843,4.95678826 7.27731453,4.90638994 C7.29094701,4.88659958 7.30441425,4.86664151 7.31837721,4.84718658 C7.36604957,4.78077149 7.41479601,4.71586583 7.46552536,4.65330818 C7.46916068,4.64886373 7.47304387,4.64467086 7.4766792,4.64022642 C7.52426895,4.58202935 7.57334587,4.52592872 7.62341425,4.47133753 C7.63993846,4.45322432 7.65679316,4.43569811 7.67356524,4.41800419 C7.71388433,4.37557233 7.75494701,4.33431447 7.79658803,4.29414675 C7.81336011,4.27804612 7.82971909,4.26177778 7.84657379,4.24609644 C7.90341709,4.19326625 7.96125185,4.14177778 8.02049117,4.09288889 C8.02817493,4.08651572 8.03627179,4.08072956 8.04403818,4.07444025 C8.09650256,4.03184067 8.1499584,3.99091824 8.20415783,3.95150524 C8.22390427,3.9369979 8.2439812,3.92307757 8.26405812,3.90915723 C8.3098302,3.87703983 8.35626325,3.84618029 8.40319202,3.8164109 C8.42211225,3.80441929 8.44078462,3.79209224 8.45995271,3.78051992 C8.52390142,3.74144235 8.58859373,3.70412579 8.65436011,3.66924109 C8.66559658,3.66320335 8.67716353,3.65800419 8.6884,3.65213417 C8.74433447,3.62320335 8.80084729,3.59586583 8.85777322,3.56995388 C8.87983305,3.55997484 8.9019755,3.55041509 8.92420057,3.54077149 C8.97468205,3.51913627 9.02557664,3.49859119 9.07688433,3.47922013 C9.09679601,3.47167296 9.11662507,3.4637065 9.13661937,3.45657862 C9.20593846,3.43184067 9.27575328,3.40886373 9.34622906,3.38840252 C9.3596963,3.38446122 9.37332877,3.38135849 9.38687863,3.37758491 C9.44537436,3.36140042 9.50420057,3.34655765 9.56335726,3.33339203 C9.58632593,3.32819287 9.60945983,3.32349686 9.63259373,3.31880084 C9.68712365,3.30773166 9.74190142,3.29808805 9.79684444,3.28953459 C9.81642564,3.28651572 9.83575897,3.28307757 9.85534017,3.28039413 C9.92821197,3.27041509 10.0014142,3.26244864 10.0747818,3.25708176 C10.0894057,3.25599161 10.1041123,3.25574004 10.1188188,3.25481761 C10.1788843,3.25112788 10.2391977,3.24903145 10.2995111,3.24844444 C10.3104171,3.24836059 10.3212405,3.24727044 10.3321464,3.24727044 C10.3443744,3.24727044 10.3566849,3.24844444 10.3689128,3.24861216 C10.4241037,3.24919916 10.4793772,3.25112788 10.5347333,3.25431447 C10.553984,3.25548847 10.5733174,3.25615933 10.5926507,3.25750105 C10.6661835,3.2631195 10.7396336,3.27066667 10.8130011,3.28081342 C10.8253117,3.28249057 10.8375396,3.28500629 10.8497675,3.2867673 C10.9114028,3.29599161 10.9728729,3.30689308 11.0342604,3.31955556 C11.0565681,3.32408386 11.0789584,3.32919916 11.1012661,3.33423061 C11.1558786,3.34647379 11.2102433,3.36022642 11.2644427,3.3752369 C11.2846849,3.38077149 11.3049271,3.38597065 11.3250866,3.39192453 C11.3977105,3.41339203 11.4700866,3.4367044 11.541967,3.4631195 C11.5493202,3.46580294 11.5565909,3.46898952 11.5639442,3.47175681 C11.6283886,3.4958239 11.6925026,3.52223899 11.7562034,3.55033124 C11.7778501,3.55989099 11.7994142,3.57003774 11.8208957,3.58001677 C11.8726165,3.604 11.9240068,3.62940881 11.9751493,3.65607547 C11.9960524,3.6670608 12.0168729,3.67762683 12.0376108,3.68903145 C12.1070952,3.72693501 12.1761664,3.76668344 12.2443288,3.80970231 C12.286796,3.83653669 12.3279413,3.86496436 12.3690866,3.89330818 C13.0726877,2.18907338 14.8306165,0.980519916 16.8894513,0.980519916 C19.5676963,0.980519916 21.7387305,3.02446122 21.7387305,5.54580294 C21.7387305,6.3712956 21.5047476,7.14504822 21.0976735,7.81330818 C22.6503715,8.42697694 23.7225453,9.73448218 23.7225453,11.2485283 C23.7225453,13.3515891 21.6542091,15.056327 19.1026222,15.056327 Z M5.50236581,23.3817778 C5.90811795,23.8415681 6.43433162,24.0846709 7.02416353,24.0846709 C7.59573618,24.0846709 8.11550541,23.8554046 8.52728889,23.4216101 C8.74425185,23.1931824 8.93147123,22.9104151 9.09059943,22.567522 C9.44091282,21.8133082 9.65564501,20.7684444 9.75346838,19.3713795 C9.83865071,18.1554465 9.81774758,16.8631195 9.78560798,15.836956 C10.5692689,16.2990943 11.4562063,16.5478994 12.3787533,16.5478994 C13.6906934,16.5478994 14.9437248,16.0365367 15.9217932,15.1218197 C16.8459926,15.6786331 17.9477447,15.9787589 19.1026222,15.9787589 C19.8676108,15.9787589 20.6098786,15.8454256 21.2933202,15.5941887 L21.2933202,17.2685702 L21.2933202,34.9279413 L21.2933202,36.9811908 C21.2933202,37.1112537 21.273739,37.2367044 21.2374684,37.3547757 C21.0803231,37.8664738 20.6092177,38.2390524 20.054004,38.2390524 L5.03952251,38.2390524 C4.35616353,38.2390524 3.80020627,37.6747757 3.80020627,36.9811908 L3.80020627,15.7022809 C4.06624615,15.7946918 4.34071339,15.8687379 4.62294701,15.9201426 C4.24098974,19.893392 4.52322336,22.2721761 5.50236581,23.3817778 Z M28.012645,17.0652998 L22.9457419,17.0652998 L22.9457419,14.6542306 C24.0327048,13.7567883 24.6313772,12.5475639 24.6313772,11.2485283 C24.6313772,10.3068931 24.3110553,9.39829769 23.7050296,8.62085535 C23.3301778,8.13993291 22.8573373,7.72433543 22.3117903,7.39242767 C22.532967,6.80223899 22.6475624,6.17716562 22.6475624,5.54580294 C22.6475624,2.51989099 20.0645795,0.0580880503 16.8894513,0.0580880503 C15.7173886,0.0580880503 14.589363,0.391924528 13.6274883,1.02328721 C12.9656108,1.45783648 12.4129584,2.0112956 11.996135,2.65213417 C11.4653772,2.43662055 10.9014057,2.32483857 10.3322291,2.32483857 C8.71649117,2.32475472 7.2109698,3.21683019 6.34303533,4.67075052 C6.10293846,4.63922013 5.86110655,4.62337107 5.6186963,4.62337107 C2.52057094,4.62337107 -3.3048433e-05,7.17724948 -3.3048433e-05,10.3164528 C-3.3048433e-05,12.1290314 0.841049573,13.7458868 2.14778462,14.7892411 L2.14778462,36.9811908 C2.14778462,38.5995556 3.44501823,39.9162013 5.03952251,39.9162013 L20.054004,39.9162013 C21.6485083,39.9162013 22.9457419,38.5995556 22.9457419,36.9811908 L22.9457419,34.475782 C24.1173088,34.0850063 25.3672006,33.590499 25.3672006,33.590499 C27.630192,32.1837904 28.9833601,29.852805 28.9833601,27.3611488 L28.9833601,17.9474801 C28.9833601,17.4622809 28.5465425,17.0652998 28.012645,17.0652998 Z" id="Fill-3" fill="#4CA585" mask="url(#mask-2)"></path>
                    </g>
                </g>
            </g>
        </g>
    </g>
</svg>