<?xml version="1.0" encoding="UTF-8"?>
<svg width="33px" height="50px" viewBox="0 0 33 50" version="1.1" xmlns="http://www.w3.org/2000/svg" xmlns:xlink="http://www.w3.org/1999/xlink">
    <!-- Generator: Sketch 51.2 (57519) - http://www.bohemiancoding.com/sketch -->
    <title>COFFEE &amp; TEA</title>
    <desc>Created with Sketch.</desc>
    <defs>
        <polygon id="path-1" points="0 0 32.9562183 0 32.9562183 27.027027 0 27.027027"></polygon>
    </defs>
    <g id="NUMU-Prototype" stroke="none" stroke-width="1" fill="none" fill-rule="evenodd">
        <g id="Subcategories---Food" transform="translate(-86.000000, -299.000000)">
            <g id="COFFEE-&amp;-TEA" transform="translate(86.000000, 299.000000)">
                <g id="Group-8">
                    <g id="Group-3" transform="translate(0.000000, 22.912669)">
                        <mask id="mask-2" fill="white">
                            <use xlink:href="#path-1"></use>
                        </mask>
                        <g id="Clip-2"></g>
                        <path d="M30.8569817,15.625 C30.8569817,17.3714527 29.4444473,18.7922297 27.7081267,18.7922297 L24.891371,18.7922297 L25.9642489,8.2347973 L27.7081267,8.2347973 C29.4444473,8.2347973 30.8569817,9.65557432 30.8569817,11.402027 L30.8569817,15.625 Z M22.5964855,24.7625 C22.5631496,25.0904561 22.2907527,25.3378378 21.9630198,25.3378378 L4.59779847,25.3378378 C4.27014962,25.3378378 3.99783664,25.0905405 3.96433282,24.7626689 L1.6827145,2.39510135 C1.66398931,2.21241554 1.72117252,2.03682432 1.84343206,1.90050676 C1.96577557,1.76427365 2.13363053,1.68918919 2.31609618,1.68918919 L24.2360733,1.68918919 C24.4186229,1.68918919 24.5863939,1.76427365 24.7087374,1.9004223 C24.8309969,2.03665541 24.8881802,2.21224662 24.8696229,2.39484797 L24.4907527,6.12331081 L24.2761267,8.2347973 L23.2047603,18.7771115 L22.9913099,20.8777027 L22.5964855,24.7625 Z M27.7081267,6.12331081 L26.1788748,6.12331081 L26.5402794,2.56663851 C26.6068672,1.91216216 26.3935847,1.2566723 25.9551802,0.768412162 C25.5167756,0.280067568 24.8901954,0 24.2360733,0 L2.31609618,0 C1.66189008,0 1.03522595,0.280152027 0.596821374,0.76875 C0.158416794,1.25717905 -0.0547816794,1.91283784 0.0120580153,2.56748311 L2.29376031,24.9350507 C2.41534809,26.1277027 3.40593588,27.027027 4.59779847,27.027027 L21.9630198,27.027027 C23.1553023,27.027027 24.1458901,26.1273649 24.267142,24.9342905 L24.676745,20.9037162 L27.7081267,20.9037162 C30.6019664,20.9037162 32.9562183,18.5357264 32.9562183,15.625 L32.9562183,11.402027 C32.9562183,8.49130068 30.6019664,6.12331081 27.7081267,6.12331081 Z" id="Fill-1" fill="#4CA585" mask="url(#mask-2)"></path>
                    </g>
                    <path d="M13.0419611,1.2407348 C12.8479076,0.836089527 12.6030527,0.151714527 12.1281214,0.00568412162 C12.0302969,-0.0243834459 11.9554802,0.0710557432 11.9731137,0.161511824 C12.0774878,0.695211149 12.3429153,1.13921453 12.5079992,1.6501098 C12.6904649,2.2148902 12.7143962,2.82629223 12.6891214,3.4157348 C12.6343733,4.68879223 12.2319076,5.80711993 11.6150679,6.90779561 C11.0696863,7.88085304 10.6781366,8.86269426 10.5379916,9.97899493 C10.3850832,11.1963936 10.4275718,12.4492652 10.627671,13.6587247 C10.8327244,14.8984206 11.2303198,16.1285726 11.9271824,17.1800084 C11.9920069,17.2778125 12.1687626,17.2495186 12.1618771,17.1160726 C12.0889076,15.7040794 12.2521443,14.2564443 12.9027397,12.9867652 C13.4607168,11.8977449 13.9554649,10.8545861 14.1213046,9.62460304 C14.3195565,8.15467061 14.2619534,6.62975507 14.0752893,5.16184966 C13.9046634,3.82038007 13.6137092,2.4711402 13.0419611,1.2407348" id="Fill-4" fill="#4CA585"></path>
                    <path d="M16.2274351,10.6111993 C16.2105573,10.523277 16.1296107,10.5044426 16.0652061,10.5316385 C16.0018092,10.5463345 15.952687,10.6009797 15.9845115,10.678598 C16.1469084,11.5236993 15.9992061,12.4247128 15.6938931,13.2208277 C15.4041145,13.9767399 15.086542,14.6775 14.9821679,15.4910135 C14.8792214,16.2938851 14.8854351,17.132652 15.0612672,17.9253041 C15.1649695,18.3925338 15.3525573,19.1042736 15.8684656,19.2733615 C15.9510076,19.3003885 16.0228015,19.2291047 16.0279237,19.1511486 C16.0830916,18.3140709 16.0085267,17.4356081 16.3038473,16.6360304 C16.5442519,15.9849324 16.9060763,15.4031757 16.995,14.7001351 C17.1674733,13.335777 16.7400687,11.8613682 16.2274351,10.6111993" id="Fill-6" fill="#4CA585"></path>
                </g>
            </g>
        </g>
    </g>
</svg>