<?xml version="1.0" encoding="UTF-8"?>
<svg width="28px" height="25px" viewBox="0 0 28 25" version="1.1" xmlns="http://www.w3.org/2000/svg" xmlns:xlink="http://www.w3.org/1999/xlink">
    <!-- Generator: Sketch 51.2 (57519) - http://www.bohemiancoding.com/sketch -->
    <title>Group 9</title>
    <desc>Created with Sketch.</desc>
    <defs>
        <polygon id="path-1" points="0 0.0146469156 27.8034244 0.0146469156 27.8034244 23.863612 0 23.863612"></polygon>
        <polygon id="path-3" points="0 25 27.8409091 25 27.8409091 0 0 0"></polygon>
    </defs>
    <g id="Symbols" stroke="none" stroke-width="1" fill="none" fill-rule="evenodd">
        <g id="Bottom-Navigation" transform="translate(-256.000000, -12.000000)">
            <g id="Group-9" transform="translate(256.000000, 12.000000)">
                <g id="Group-3" transform="translate(0.000000, 1.136364)">
                    <mask id="mask-2" fill="white">
                        <use xlink:href="#path-1"></use>
                    </mask>
                    <g id="Clip-2"></g>
                    <path d="M23.341142,11.7592086 C23.341142,12.0187256 23.1287103,12.2310024 22.869004,12.2310024 L18.7205258,12.2310024 L18.7205258,17.1036891 L22.869004,17.1036891 C23.1287103,17.1036891 23.341142,17.3159659 23.341142,17.575483 L23.341142,17.8494278 C23.341142,18.1089448 23.1287103,18.3212216 22.869004,18.3212216 L18.7205258,18.3212216 L18.7205258,20.6259497 C18.7205258,21.0277354 18.3915522,21.3564692 17.9894735,21.3564692 C17.5873947,21.3564692 17.2584212,21.0277354 17.2584212,20.6259497 L17.2584212,18.3212216 L10.5418171,18.3212216 L10.5418171,20.6259497 C10.5418171,21.0277354 10.2129044,21.3564692 9.81076475,21.3564692 C9.40874689,21.3564692 9.07971243,21.0277354 9.07971243,20.6259497 L9.07971243,18.3212216 L4.935255,18.3212216 C4.67554866,18.3212216 4.46311704,18.1089448 4.46311704,17.8494278 L4.46311704,17.575483 C4.46311704,17.3159659 4.67554866,17.1036891 4.935255,17.1036891 L9.07971243,17.1036891 L9.07971243,12.2310024 L4.935255,12.2310024 C4.67554866,12.2310024 4.46311704,12.0187256 4.46311704,11.7592086 L4.46311704,11.4852638 C4.46311704,11.2257468 4.67554866,11.01347 4.935255,11.01347 L9.07971243,11.01347 L9.07971243,8.97203328 C9.07971243,8.57024756 9.40874689,8.2415138 9.81076475,8.2415138 C10.2129044,8.2415138 10.5418171,8.57024756 10.5418171,8.97203328 L10.5418171,11.01347 L17.2584212,11.01347 L17.2584212,8.97203328 C17.2584212,8.57024756 17.5873947,8.2415138 17.9894735,8.2415138 C18.3915522,8.2415138 18.7205258,8.57024756 18.7205258,8.97203328 L18.7205258,11.01347 L22.869004,11.01347 C23.1287103,11.01347 23.341142,11.2257468 23.341142,11.4852638 L23.341142,11.7592086 Z M26.2803987,0.0146469156 L26.2167972,0.0146469156 L20.4461139,0.0146469156 C20.27785,0.0146469156 20.1415087,0.150888799 20.1415087,0.319030032 L20.1415087,1.5365625 C20.1415087,1.70470373 20.27785,1.84094562 20.4461139,1.84094562 L25.0611253,1.84094562 C25.565856,1.84094562 25.9749407,2.24979302 25.9749407,2.75409497 L25.9749407,5.22763393 C25.9749407,5.731875 25.565856,6.14078328 25.0611253,6.14078328 L2.74142791,6.14078328 C2.23675813,6.14078328 1.82761252,5.731875 1.82761252,5.22763393 L1.82761252,2.75409497 C1.82761252,2.24979302 2.23675813,1.84094562 2.74142791,1.84094562 L7.35436804,1.84094562 C7.52263191,1.84094562 7.65897317,1.70470373 7.65897317,1.5365625 L7.65897317,0.319030032 C7.65897317,0.150888799 7.52263191,0.0146469156 7.35436804,0.0146469156 L1.58581696,0.0146469156 L1.52386028,0.0146469156 C0.686196166,0.0146469156 0.000834618062,0.699508929 0.000834618062,1.5365625 L0.000834618062,1.57905438 C0.000773697036,1.58587256 -1.82763079e-05,1.59244724 -1.82763079e-05,1.59926542 L-1.82763079e-05,6.14078328 L-1.82763079e-05,22.2790544 C-1.82763079e-05,22.2850812 0.000773697036,22.2909253 0.000834618062,22.297013 C0.00193119654,22.3873539 0.0101555351,22.4759903 0.0257513179,22.5621307 C0.0294065795,22.58222 0.0333055252,22.6021875 0.037630918,22.6219115 C0.0510944649,22.6827273 0.0680305102,22.7421429 0.08819537,22.8000365 C0.092764447,22.813125 0.097394445,22.8262135 0.102268127,22.8390584 C0.115122464,22.8731494 0.129256142,22.9065706 0.144364556,22.9395049 C0.158680998,22.9705519 0.173606649,23.0012338 0.189750721,23.0310633 C0.193466904,23.0380032 0.197487691,23.0447606 0.201386637,23.0516396 C0.472667968,23.5360349 0.990801298,23.863612 1.58581696,23.863612 L26.2167972,23.863612 L26.2803987,23.863612 C27.1180628,23.863612 27.8034244,23.17875 27.8034244,22.3416964 L27.8034244,1.5365625 C27.8034244,0.699508929 27.1180628,0.0146469156 26.2803987,0.0146469156 Z" id="Fill-1" fill="#FFFCF7" mask="url(#mask-2)"></path>
                </g>
                <mask id="mask-4" fill="white">
                    <use xlink:href="#path-3"></use>
                </mask>
                <g id="Clip-5"></g>
                <polygon id="Fill-4" fill="#FFFCF7" mask="url(#mask-4)" points="10.6060606 18.1818182 17.2348485 18.1818182 17.2348485 13.2575758 10.6060606 13.2575758"></polygon>
                <path d="M15.4218585,3.03030303 C15.5863845,3.03030303 15.719697,2.88901515 15.719697,2.71464646 L15.719697,1.4520202 C15.719697,1.27765152 15.5863845,1.13636364 15.4218585,1.13636364 L12.4190506,1.13636364 C12.2545246,1.13636364 12.1212121,1.27765152 12.1212121,1.4520202 L12.1212121,2.71464646 C12.1212121,2.88901515 12.2545246,3.03030303 12.4190506,3.03030303 L15.4218585,3.03030303 Z" id="Fill-6" fill="#FFFCF7" mask="url(#mask-4)"></path>
                <path d="M8.90336729,3.40681304 C8.90336729,3.46056731 8.91157846,3.51238885 8.92596344,3.56179446 C8.93510067,3.59320146 8.94701612,3.62340049 8.96127762,3.65233116 C8.97578607,3.68180541 8.9925171,3.70983011 9.01177938,3.73616367 C9.05252652,3.79215267 9.10284306,3.84089391 9.16106208,3.87948827 C9.17662008,3.88975594 9.19267199,3.89929883 9.20909432,3.90817735 C9.25873174,3.9345713 9.31256736,3.95420067 9.3693664,3.9656159 C9.40721185,3.97322606 9.44641554,3.97727273 9.48648356,3.97727273 L10.2125852,3.97727273 C10.2325884,3.97727273 10.252468,3.97624596 10.2719773,3.97431322 C10.5455388,3.9468321 10.7646472,3.73253978 10.7926763,3.46485558 C10.7945285,3.44697775 10.7953928,3.42873754 10.7954545,3.41049732 L10.7954545,1.1122303 L10.7954545,0.567741775 C10.7952693,0.51930253 10.7882929,0.472554431 10.7763157,0.427618273 C10.7666229,0.39125864 10.7534109,0.356348561 10.7369268,0.323190025 C10.6422823,0.132573744 10.4427448,0 10.2125852,0 L9.48648356,0 C9.16575418,0 8.90336729,0.25669176 8.90336729,0.57039929 L8.90336729,1.1122303 L8.90336729,1.30326936 L8.90151515,2.72944878 L8.90336729,3.40681304 Z" id="Fill-7" fill="#FFFCF7" mask="url(#mask-4)"></path>
                <path d="M18.3552211,3.97727273 C18.6764018,3.97727273 18.9392084,3.72052447 18.9392084,3.4068217 L18.9392084,2.72946773 L18.9393939,1.30330997 L18.9392084,1.11221341 L18.9392084,0.570511422 C18.9392084,0.464756023 18.9088465,0.365885898 18.8570272,0.280786322 C18.8314886,0.238931102 18.8006939,0.200397724 18.7655087,0.16621294 C18.6598913,0.0637189869 18.5149457,0 18.3552211,0 L17.6279578,0 C17.3167947,0 17.0612229,0.241045002 17.0454545,0.541279205 L17.0454545,1.11221341 L17.0454545,3.43593313 C17.0612229,3.73622773 17.3167947,3.97727273 17.6279578,3.97727273 L18.3552211,3.97727273 Z" id="Fill-8" fill="#FFFCF7" mask="url(#mask-4)"></path>
            </g>
        </g>
    </g>
</svg>