<?xml version="1.0" encoding="UTF-8"?>
<svg width="44px" height="40px" viewBox="0 0 44 40" version="1.1" xmlns="http://www.w3.org/2000/svg" xmlns:xlink="http://www.w3.org/1999/xlink">
    <!-- Generator: Sketch 51.2 (57519) - http://www.bohemiancoding.com/sketch -->
    <title>FASTFOOD</title>
    <desc>Created with Sketch.</desc>
    <defs>
        <polygon id="path-1" points="0 0.0305837321 43.9565777 0.0305837321 43.9565777 39.9042679 0 39.9042679"></polygon>
    </defs>
    <g id="NUMU-Prototype" stroke="none" stroke-width="1" fill="none" fill-rule="evenodd">
        <g id="Subcategories---Food" transform="translate(-250.000000, -148.000000)">
            <g id="FASTFOOD" transform="translate(250.000000, 148.000000)">
                <g id="Group">
                    <path d="M30.589888,29.6330526 L1.82938906,29.6330526 C1.05962976,29.6330526 0.43332779,30.0998469 0.43332779,30.6736268 L0.43332779,31.2701818 C0.43332779,31.8439617 1.05962976,32.310756 1.82938906,32.310756 L30.589888,32.310756 C31.3596473,32.310756 31.9859492,31.8439617 31.9859492,31.2701818 L31.9859492,30.6736268 C31.9859492,30.0998469 31.3596473,29.6330526 30.589888,29.6330526" id="Fill-1" fill="#4CA585"></path>
                    <path d="M16.5155492,19.6946316 C16.4108928,19.3518565 16.2408621,18.8732919 15.9222713,18.6823828 C15.8706652,18.6514737 15.7886346,18.6577895 15.7473304,18.7047751 C15.4504026,19.0426699 15.2502363,19.4374067 15.1865952,19.884488 C15.141151,20.2039139 15.1263239,20.6155885 15.4325908,20.8144402 C15.6812823,20.9757799 16.0320306,20.9388421 16.256267,20.7529091 C16.5604158,20.5008517 16.593151,20.0886029 16.5219037,19.7272632 C16.5210372,19.7168325 16.5190153,19.7059234 16.5155492,19.6946316" id="Fill-3" fill="#4CA585"></path>
                    <path d="M19.0213252,18.5537895 C18.7026381,18.3828804 18.2407825,18.1652727 17.8783842,18.254555 C17.8202311,18.2687177 17.7684324,18.3317799 17.7723799,18.3928325 C17.7998197,18.8199139 17.9293164,19.227378 18.1818591,19.5771388 C18.3694127,19.8368517 18.6542092,20.1641244 19.0118897,20.1135024 C19.333754,20.0677608 19.5854302,19.758 19.5941917,19.4403923 C19.6049751,19.0550335 19.3276884,18.7487177 19.0213252,18.5537895" id="Fill-5" fill="#4CA585"></path>
                    <path d="M13.8035799,18.1799809 C13.3738818,18.2072536 12.9639212,18.3359617 12.6121138,18.5870622 C12.3508096,18.7734737 12.0214354,19.0565359 12.0725602,19.4120383 C12.1183895,19.7318469 12.4301444,19.9819904 12.749698,19.9907943 C13.1374179,20.0013206 13.4455142,19.7258182 13.6416368,19.4214163 C13.813593,19.1045742 14.0325339,18.6455311 13.9428009,18.2854354 C13.9284551,18.2276364 13.8651028,18.1760574 13.8035799,18.1799809" id="Fill-7" fill="#4CA585"></path>
                    <g id="Group-11" transform="translate(0.000000, 0.065167)">
                        <mask id="mask-2" fill="white">
                            <use xlink:href="#path-1"></use>
                        </mask>
                        <g id="Clip-10"></g>
                        <path d="M31.0712884,36.6883828 C31.0712884,37.0121148 30.9796298,37.4305837 30.2656166,37.7958469 C29.7004525,38.0848421 27.5229821,38.1979522 25.6007501,38.2978565 L25.5590608,38.3001531 C25.1729777,38.3201531 24.7777479,38.340823 24.3776079,38.3631196 C19.2438573,38.6506794 16.0201112,38.5737416 11.938028,38.4766124 L11.9248376,38.4763254 C10.2808551,38.4371866 8.58083764,38.3968038 6.55423807,38.3741244 C6.41780919,38.372689 6.26549409,38.372689 6.10085514,38.372689 C4.43983107,38.3725933 1.34798862,38.3724019 1.34798862,36.6881914 L1.34798862,35.4227368 C1.34798862,34.7028325 1.68236937,34.2657033 1.82938906,34.2657033 L30.589888,34.2657033 C30.7369077,34.2657033 31.0712884,34.7028325 31.0712884,35.4227368 L31.0712884,36.6883828 Z M31.0675335,27.5222584 C31.0210302,27.5679043 30.9175291,27.6119234 30.7818705,27.6119234 L1.63740656,27.6119234 C1.50579168,27.6119234 1.40440875,27.570488 1.35193611,27.52111 C1.69267133,24.785512 3.36226433,22.2426411 6.05666258,20.357378 C8.82683326,18.4191005 12.4326188,17.3517321 16.2096867,17.3517321 C19.9867545,17.3517321 23.59254,18.4191005 26.3627107,20.357378 C29.0573978,22.2429282 30.7269908,24.7862775 31.0675335,27.5222584 Z M42.9938442,6.33508134 L34.8040674,6.33508134 L34.8040674,0.536803828 C34.8040674,0.257665072 34.5754985,0.0305837321 34.2946495,0.0305837321 L33.5755335,0.0305837321 C33.2946845,0.0305837321 33.0661155,0.257665072 33.0661155,0.536803828 L33.0661155,6.33508134 L24.876435,6.33508134 C24.3455466,6.33508134 23.9136341,6.76436364 23.9136341,7.29201914 L23.9136341,8.12206699 C23.9136341,8.50484211 24.1414328,8.83498565 24.4689777,8.98780861 L25.1724,18.0851292 C22.5302818,16.7388134 19.4240937,16.0120191 16.2096867,16.0120191 C12.1571615,16.0120191 8.2759186,17.1661818 5.28074136,19.2619713 C2.25754661,21.3771866 0.385284026,24.2669474 0.00892516411,27.3988134 C-0.0346897155,27.7616842 0.0819054705,28.1189091 0.337143982,28.4048421 C0.64292954,28.7473301 1.12895142,28.9516364 1.63740656,28.9516364 L30.7818705,28.9516364 C31.2902293,28.9516364 31.7763475,28.7473301 32.082133,28.4048421 C32.3373716,28.1189091 32.4539667,27.7616842 32.4103519,27.3989091 C32.033993,24.2669474 30.1617304,21.3771866 27.1385357,19.2619713 C26.8288989,19.0452249 26.5091527,18.8391962 26.1812228,18.6428325 L25.4416954,9.07900478 L42.4284875,9.07900478 L40.1900718,38.026756 C40.1710083,38.2745072 39.9601549,38.4685742 39.7101155,38.4685742 L31.6366451,38.4685742 C32.1505882,37.9933589 32.4191133,37.390201 32.4192096,36.6884785 L32.4192096,35.4227368 C32.4192096,34.0227368 31.615656,32.9259904 30.589888,32.9259904 L1.82938906,32.9259904 C0.803621007,32.9259904 6.73960613e-05,34.0227368 6.73960613e-05,35.4227368 L6.73960613e-05,36.6881914 C6.73960613e-05,39.7121148 4.1205663,39.7123062 6.10075886,39.7124019 C6.26000613,39.7124019 6.40721838,39.7124019 6.53921838,39.7138373 C8.55715274,39.7363254 10.2527414,39.7766124 11.8925838,39.8156555 L11.9057742,39.8160383 C13.8128902,39.8613971 15.6142906,39.9042679 17.4805838,39.9042679 C19.7580893,39.9042679 21.9737829,39.8396746 24.4533803,39.7007273 C24.866133,39.6775694 25.2736867,39.6564211 25.6712271,39.6358469 C26.9175729,39.5710622 27.9942731,39.5150813 28.8658004,39.425512 L39.7101155,39.425512 C40.4601374,39.425512 41.0926013,38.843311 41.1500805,38.1000574 L43.4012053,8.98780861 C43.7287501,8.83498565 43.9566451,8.50484211 43.9566451,8.12206699 L43.9566451,7.29201914 C43.9566451,6.76436364 43.5247326,6.33508134 42.9938442,6.33508134 Z" id="Fill-9" fill="#4CA585" mask="url(#mask-2)"></path>
                    </g>
                </g>
            </g>
        </g>
    </g>
</svg>