<?xml version="1.0" encoding="UTF-8"?>
<svg width="27px" height="25px" viewBox="0 0 27 25" version="1.1" xmlns="http://www.w3.org/2000/svg" xmlns:xlink="http://www.w3.org/1999/xlink">
    <!-- Generator: Sketch 51.2 (57519) - http://www.bohemiancoding.com/sketch -->
    <title>Fill 2</title>
    <desc>Created with Sketch.</desc>
    <defs></defs>
    <g id="Symbols" stroke="none" stroke-width="1" fill="none" fill-rule="evenodd">
        <g id="Bottom-Navigation" transform="translate(-93.000000, -12.000000)" fill="#FFFCF7">
            <path d="M114.017196,36.9134881 L106.854708,33.2577865 C106.632543,33.144452 106.367457,33.144452 106.145292,33.2577865 L98.982804,36.9134881 C98.4234438,37.1984908 97.7699985,36.738153 97.8767886,36.1334806 L99.2448002,28.3910733 C99.2873788,28.151071 99.2053119,27.906402 99.025726,27.7364004 L93.230906,22.2530146 C92.7786793,21.8246772 93.0283139,21.0790034 93.6532589,20.9906692 L101.661483,19.8613251 C101.909744,19.8263248 102.124355,19.67499 102.235265,19.4566546 L105.816681,12.4122539 C106.096189,11.862582 106.903811,11.862582 107.183319,12.4122539 L110.764735,19.4566546 C110.875645,19.67499 111.090256,19.8263248 111.338517,19.8613251 L119.346741,20.9906692 C119.971686,21.0790034 120.221321,21.8246772 119.769094,22.2530146 L113.974274,27.7364004 C113.794688,27.906402 113.712621,28.151071 113.7552,28.3910733 L115.122868,36.1334806 C115.229658,36.738153 114.576213,37.1984908 114.017196,36.9134881" id="Fill-2"></path>
        </g>
    </g>
</svg>