<?xml version="1.0" encoding="UTF-8"?>
<svg width="59px" height="40px" viewBox="0 0 59 40" version="1.1" xmlns="http://www.w3.org/2000/svg" xmlns:xlink="http://www.w3.org/1999/xlink">
    <!-- Generator: Sketch 51.2 (57519) - http://www.bohemiancoding.com/sketch -->
    <title>FOOD</title>
    <desc>Created with Sketch.</desc>
    <defs></defs>
    <g id="NUMU-Prototype" stroke="none" stroke-width="1" fill="none" fill-rule="evenodd">
        <g id="Home-Page-/-Categories" transform="translate(-73.000000, -148.000000)">
            <g id="FOOD" transform="translate(73.000000, 148.000000)">
                <path d="M49.859632,20.0032357 C49.859632,31.0473121 40.7663864,39.9999236 29.5491408,39.9999236 C18.3321539,39.9999236 9.23890833,31.0473121 9.23890833,20.0032357 C9.23890833,8.95915924 18.3321539,0.00629299363 29.5491408,0.00629299363 C40.7663864,0.00629299363 49.859632,8.95915924 49.859632,20.0032357" id="Fill-1" fill="#4CA585"></path>
                <path d="M29.5492702,36.6699873 C20.2148491,36.6699873 12.6206693,29.1930446 12.6206693,20.0027261 C12.6206693,10.8124076 20.2148491,3.33521019 29.5492702,3.33521019 C38.8836912,3.33521019 46.4778711,10.8124076 46.4778711,20.0027261 C46.4778711,29.1930446 38.8836912,36.6699873 29.5492702,36.6699873" id="Fill-3" fill="#4CA585"></path>
                <path d="M29.5493219,2.18873885 C19.5568439,2.18873885 11.4562474,10.164535 11.4562474,20.0027516 C11.4562474,29.8409682 19.5568439,37.8165096 29.5493219,37.8165096 C39.5418,37.8165096 47.6423965,29.8409682 47.6423965,20.0027516 C47.6423965,10.164535 39.5418,2.18873885 29.5493219,2.18873885 M29.5493219,4.48173248 C38.2417298,4.48173248 45.3134491,11.444535 45.3134491,20.0027516 C45.3134491,28.5609682 38.2417298,35.5235159 29.5493219,35.5235159 C20.856914,35.5235159 13.7851947,28.5609682 13.7851947,20.0027516 C13.7851947,11.444535 20.856914,4.48173248 29.5493219,4.48173248" id="Fill-5" fill="#F9F9F9"></path>
                <path d="M6.37003333,0.045044586 C6.10039298,0.045044586 5.8799193,0.328611465 5.8799193,0.675363057 L5.8799193,0.675617834 L5.8799193,6.62211465 C5.8799193,6.96886624 5.65944561,7.25243312 5.39006404,7.25243312 C5.12042368,7.25243312 4.89995,6.96886624 4.89995,6.62211465 L4.89995,0.675617834 L4.89995,0.675363057 C4.89995,0.328611465 4.67947632,0.045044586 4.41009474,0.045044586 C4.14045439,0.045044586 3.9199807,0.328611465 3.9199807,0.675617834 L3.9199807,1.79638217 L3.9199807,6.62211465 C3.9199807,6.96886624 3.69950702,7.25243312 3.42986667,7.25243312 C3.16048509,7.25243312 2.9400114,6.96886624 2.9400114,6.62211465 L2.9400114,1.79638217 L2.9400114,0.675617834 C2.9400114,0.328611465 2.71953772,0.045044586 2.44989737,0.045044586 C2.18051579,0.045044586 1.96004211,0.328611465 1.96004211,0.675617834 L1.96004211,1.79638217 L1.96004211,6.62211465 C1.96004211,6.96886624 1.73956842,7.25243312 1.46992807,7.25243312 C1.20054649,7.25243312 0.980072807,6.96886624 0.980072807,6.62211465 L0.980072807,0.675617834 L0.980072807,0.675363057 C0.980072807,0.328611465 0.759599123,0.045044586 0.489958772,0.045044586 C0.220577193,0.045044586 0.000103508772,0.328611465 0.000103508772,0.675617834 L0.000103508772,2.60478981 L0.000103508772,6.20835669 L0.000103508772,8.57549045 L0.000103508772,8.63332484 L0.000103508772,8.73421656 C0.000103508772,8.76351592 0.00139736842,8.79230573 0.00372631579,8.82033121 C0.0640201754,10.6539618 1.00439737,12.206828 2.29230526,12.7940892 L2.29230526,38.7749809 C2.29230526,39.3709045 2.78759474,39.858293 3.39260351,39.858293 L3.48420877,39.858293 C4.08947632,39.858293 4.58476579,39.3709045 4.58476579,38.7749809 L4.58476579,12.7864459 C5.86387544,12.1933248 6.7962307,10.6455541 6.85626579,8.82033121 C6.85859474,8.79230573 6.8598886,8.76351592 6.8598886,8.73421656 L6.8598886,8.63332484 L6.8598886,8.57549045 L6.8598886,6.20835669 L6.8598886,2.60478981 L6.8598886,0.675617834 C6.8598886,0.328611465 6.63941491,0.045044586 6.37003333,0.045044586" id="Fill-7" fill="#4CA585"></path>
                <path d="M58.8679487,38.8199236 L58.8679487,17.9009427 L58.8679487,1.08336306 C58.8679487,0.496356688 58.3871504,0.0153375796 57.7943039,0.00132484076 C57.7702382,0.00107006369 57.7461724,5.0955414e-05 57.7218478,5.0955414e-05 C57.6975232,5.0955414e-05 57.6734575,0.00107006369 57.6493917,0.00132484076 C57.4009706,0.00718471338 57.1729925,0.0958471338 56.9910759,0.239031847 C54.8774268,1.72259873 53.549668,9.83419108 53.549668,15.1903694 C53.549668,20.2054013 54.6383215,20.3682038 56.5757469,21.184 L56.5757469,38.8199236 C56.5757469,39.4158471 57.0707776,39.9034904 57.6760452,39.9034904 L57.7676504,39.9034904 C58.3726592,39.9034904 58.8679487,39.4158471 58.8679487,38.8199236" id="Fill-9" fill="#4CA585"></path>
            </g>
        </g>
    </g>
</svg>