<?xml version="1.0" encoding="UTF-8"?>
<svg width="32px" height="40px" viewBox="0 0 32 40" version="1.1" xmlns="http://www.w3.org/2000/svg" xmlns:xlink="http://www.w3.org/1999/xlink">
    <!-- Generator: Sketch 51.2 (57519) - http://www.bohemiancoding.com/sketch -->
    <title>GOVERNMENT</title>
    <desc>Created with Sketch.</desc>
    <defs>
        <polygon id="path-1" points="3.35078534e-05 0.0496666667 31.8852356 0.0496666667 31.8852356 1.66666667 3.35078534e-05 1.66666667"></polygon>
    </defs>
    <g id="NUMU-Prototype" stroke="none" stroke-width="1" fill="none" fill-rule="evenodd">
        <g id="Home-Page-/-Categories" transform="translate(-256.000000, -631.000000)">
            <g id="GOVERNMENT" transform="translate(256.000000, 631.000000)">
                <g id="Group-24">
                    <path d="M3.76918115,35.1899333 L2.73295079,35.1899333 C2.33018639,35.1899333 2.00063665,34.8621 2.00063665,34.4614333 L2.00063665,21.3649333 C2.00063665,20.9642667 2.33018639,20.6364333 2.73295079,20.6364333 L3.76918115,20.6364333 C4.17194555,20.6364333 4.50149529,20.9642667 4.50149529,21.3649333 L4.50149529,34.4614333 C4.50149529,34.8621 4.17194555,35.1899333 3.76918115,35.1899333" id="Fill-1" fill="#4CA585"></path>
                    <path d="M29.2773864,35.1899333 L28.241156,35.1899333 C27.8383916,35.1899333 27.5088419,34.8621 27.5088419,34.4614333 L27.5088419,21.3649333 C27.5088419,20.9642667 27.8383916,20.6364333 28.241156,20.6364333 L29.2773864,20.6364333 C29.6801508,20.6364333 30.0097005,20.9642667 30.0097005,21.3649333 L30.0097005,34.4614333 C30.0097005,34.8621 29.6801508,35.1899333 29.2773864,35.1899333" id="Fill-3" fill="#4CA585"></path>
                    <path d="M24.2757696,35.1899333 L23.2395393,35.1899333 C22.8367749,35.1899333 22.5072251,34.8621 22.5072251,34.4614333 L22.5072251,21.3649333 C22.5072251,20.9642667 22.8367749,20.6364333 23.2395393,20.6364333 L24.2757696,20.6364333 C24.678534,20.6364333 25.0080838,20.9642667 25.0080838,21.3649333 L25.0080838,34.4614333 C25.0080838,34.8621 24.678534,35.1899333 24.2757696,35.1899333" id="Fill-5" fill="#4CA585"></path>
                    <path d="M8.77078115,35.1899333 L7.73455079,35.1899333 C7.33178639,35.1899333 7.00223665,34.8621 7.00223665,34.4614333 L7.00223665,21.3649333 C7.00223665,20.9642667 7.33178639,20.6364333 7.73455079,20.6364333 L8.77078115,20.6364333 C9.17354555,20.6364333 9.50309529,20.9642667 9.50309529,21.3649333 L9.50309529,34.4614333 C9.50309529,34.8621 9.17354555,35.1899333 8.77078115,35.1899333" id="Fill-7" fill="#4CA585"></path>
                    <path d="M19.6368251,35.1899333 L12.248511,35.1899333 C11.8457466,35.1899333 11.5161969,34.8621 11.5161969,34.4614333 L11.5161969,21.3649333 C11.5161969,20.9642667 11.8457466,20.6364333 12.248511,20.6364333 L19.6368251,20.6364333 C20.0395895,20.6364333 20.3691393,20.9642667 20.3691393,21.3649333 L20.3691393,34.4614333 C20.3691393,34.8621 20.0395895,35.1899333 19.6368251,35.1899333" id="Fill-9" fill="#4CA585"></path>
                    <g id="Group-13" transform="translate(0.000000, 38.250000)">
                        <mask id="mask-2" fill="white">
                            <use xlink:href="#path-1"></use>
                        </mask>
                        <g id="Clip-12"></g>
                        <path d="M31.215112,1.66666667 L0.670190576,1.66666667 C0.301604188,1.66666667 3.35078534e-05,1.36666667 3.35078534e-05,1 L3.35078534e-05,0.716333333 C3.35078534e-05,0.349666667 0.301604188,0.0496666667 0.670190576,0.0496666667 L31.215112,0.0496666667 C31.5836984,0.0496666667 31.8852691,0.349666667 31.8852691,0.716333333 L31.8852691,1 C31.8852691,1.36666667 31.5836984,1.66666667 31.215112,1.66666667" id="Fill-11" fill="#4CA585" mask="url(#mask-2)"></path>
                    </g>
                    <path d="M30.4648545,37.6777333 L1.54539895,37.6777333 C1.17681257,37.6777333 0.875241885,37.3775667 0.875241885,37.0110667 L0.875241885,36.7272333 C0.875241885,36.3607333 1.17681257,36.0605667 1.54539895,36.0605667 L30.4648545,36.0605667 C30.8334408,36.0605667 31.1350115,36.3607333 31.1350115,36.7272333 L31.1350115,37.0110667 C31.1350115,37.3775667 30.8334408,37.6777333 30.4648545,37.6777333" id="Fill-14" fill="#4CA585"></path>
                    <path d="M30.4648545,19.7654667 L1.54539895,19.7654667 C1.17681257,19.7654667 0.875241885,19.4654667 0.875241885,19.0988 L0.875241885,18.8151333 C0.875241885,18.4484667 1.17681257,18.1484667 1.54539895,18.1484667 L30.4648545,18.1484667 C30.8334408,18.1484667 31.1350115,18.4484667 31.1350115,18.8151333 L31.1350115,19.0988 C31.1350115,19.4654667 30.8334408,19.7654667 30.4648545,19.7654667" id="Fill-16" fill="#4CA585"></path>
                    <path d="M21.1788063,11.9217167 C21.8285236,11.9217167 22.3257801,11.33405 22.2016335,10.69955 C21.6237906,7.74855 18.9964398,5.50321667 15.867644,5.50321667 C12.7386806,5.50321667 10.1114974,7.74855 9.53365445,10.69955 C9.40934031,11.33405 9.9067644,11.9217167 10.5564817,11.9217167 L21.1788063,11.9217167 Z" id="Fill-18" fill="#4CA585"></path>
                    <path d="M28.1367791,17.2278667 L3.89853822,17.2278667 C3.54921885,17.2278667 3.26339686,16.9435333 3.26339686,16.5960333 L3.26339686,13.3817 C3.26339686,13.0342 3.54921885,12.7498667 3.89853822,12.7498667 L28.1367791,12.7498667 C28.4860984,12.7498667 28.7719204,13.0342 28.7719204,13.3817 L28.7719204,16.5960333 C28.7719204,16.9435333 28.4860984,17.2278667 28.1367791,17.2278667" id="Fill-20" fill="#4CA585"></path>
                    <path d="M18.8356356,0 L16.0536461,0 C15.7968084,0 15.5957613,0.2395 15.5957613,0.545 L15.5957613,4.82933333 C15.5957613,4.92533333 15.6741696,5.00333333 15.7708398,5.00333333 L15.9234681,5.00333333 C16.0199707,5.00333333 16.0983791,4.92533333 16.0983791,4.82933333 L16.0983791,2.9555 C16.0983791,2.8595 16.1767874,2.7815 16.2734576,2.7815 L18.8356356,2.7815 C19.0923058,2.7815 19.2933529,2.54216667 19.2933529,2.23666667 L19.2933529,0.545 C19.2933529,0.2395 19.0923058,0 18.8356356,0" id="Fill-22" fill="#4CA585"></path>
                </g>
            </g>
        </g>
    </g>
</svg>