<?xml version="1.0" encoding="UTF-8"?>
<svg width="35px" height="40px" viewBox="0 0 35 40" version="1.1" xmlns="http://www.w3.org/2000/svg" xmlns:xlink="http://www.w3.org/1999/xlink">
    <!-- Generator: Sketch 51.2 (57519) - http://www.bohemiancoding.com/sketch -->
    <title>Grocery</title>
    <desc>Created with Sketch.</desc>
    <defs>
        <polygon id="path-1" points="3.02371585e-05 0.16 34.238225 0.16 34.238225 39.73104 3.02371585e-05 39.73104"></polygon>
    </defs>
    <g id="NUMU-Prototype" stroke="none" stroke-width="1" fill="none" fill-rule="evenodd">
        <g id="Home-Page-/-Categories" transform="translate(-254.000000, -149.000000)">
            <g id="GROCERY" transform="translate(254.000000, 149.000000)">
                <path d="M23.552725,20.96576 C23.116625,20.77424 22.5939,20.52672 22.092875,20.57552 C21.5243,20.63104 21.068075,21.0792 20.58105,21.31616 C19.57025,21.80816 18.394775,21.80928 17.338825,21.4288 C16.383675,21.0848 15.5603,20.03552 14.486325,20.4952 C13.64545,20.85504 12.974675,21.476 12.04385,21.6704 C11.080825,21.87168 10.214225,21.51808 9.422,21.04752 C9.01915,20.80832 8.575,20.44544 8.088325,20.36272 C7.525175,20.26688 7.06335,20.64816 6.59505,20.87328 C5.03125,21.62464 3.264975,21.61584 1.726725,20.98512 C1.282575,25.08032 1.7269,29.20304 2.55675,33.23968 C2.759225,34.22432 2.994425,35.20288 3.196025,36.18768 C3.36385,37.00688 3.667475,37.64 4.561025,37.96368 C6.24365,38.57328 8.4245,38.2768 10.185525,38.27568 C14.7112,38.2728 19.23705,38.26992 23.762725,38.26704 C24.401125,38.26672 25.03935,38.26688 25.677575,38.26592 C26.163725,38.26512 26.75435,38.32688 27.210575,38.15392 C28.053025,37.8344 28.1827,36.67584 28.364175,35.96416 C28.817075,34.18752 29.025675,32.3736 29.1697,30.55696 C29.307075,28.82464 29.4168,27.08832 29.469125,25.35184 C29.516725,23.7768 29.760675,22.0576 29.37515,20.49312 C28.511,20.91312 27.751325,21.52864 26.7568,21.69872 C25.600925,21.89664 24.56335,21.40992 23.552725,20.96576 Z" id="Fill-1" fill="#F9F9F9" fill-rule="evenodd"></path>
                <path d="M7.915285,9.575136 C8.138585,9.121216 9.635185,9.906336 10.102435,9.961376 C10.78126,10.041536 11.37906,9.873536 11.87711,9.443136 C12.451285,8.947136 11.583985,8.156096 11.01086,8.651296 C10.289685,9.274496 9.23146,8.391616 8.453585,8.290336 C7.79366,8.204416 7.141435,8.432736 6.857585,9.009856 C6.53681,9.661856 7.592235,10.232096 7.915285,9.575136" id="Fill-3" fill="#4CA585" fill-rule="evenodd"></path>
                <path d="M7.19922,13.666384 C7.47712,12.971024 9.59777,14.144624 10.15252,14.227344 C10.96522,14.348624 11.742745,14.148944 12.32672,13.573104 C12.846645,13.060304 12.03587,12.267824 11.51542,12.781104 C10.512845,13.769904 9.12247,12.521424 8.043945,12.340464 C7.176995,12.195024 6.412945,12.567824 6.093045,13.368624 C5.824595,14.040464 6.933395,14.331664 7.19922,13.666384" id="Fill-5" fill="#4CA585" fill-rule="evenodd"></path>
                <mask id="mask-2" fill="white">
                    <use xlink:href="#path-1"></use>
                </mask>
                <g id="Clip-8"></g>
                <path d="M31.6857275,10.439504 C31.2218025,10.768784 30.6626775,10.908144 30.3335025,11.385744 C30.1229775,11.691504 30.0307525,12.062544 30.1529025,12.410384 C30.3415525,12.947824 30.9425025,13.000624 31.2470025,13.435824 C31.8777025,14.337424 30.7584025,14.930864 30.0083525,15.167664 C29.6098775,15.293424 29.2208525,15.469264 29.1013275,15.866864 C28.9375275,16.412144 29.3962025,16.648784 29.7112025,17.023824 C30.1492275,17.545264 29.7561775,18.103824 29.2899775,18.575824 C29.1531275,18.714224 28.9058525,18.995024 28.7093275,19.251664 C27.8534025,19.728304 26.9929275,20.355824 26.0708525,20.307984 C24.8913525,20.246864 23.9066275,19.367024 22.7423525,19.181904 C22.5031275,19.143824 22.2656525,19.132784 22.0315025,19.146544 L22.0315025,17.839984 C22.0315025,17.451824 21.9307025,17.085744 21.7560525,16.758224 C21.7268275,16.692304 21.6953275,16.626704 21.6601525,16.561584 L21.3922275,15.315024 C21.1811775,14.332624 20.6750775,13.427824 19.9339525,12.707664 L19.4714275,12.258064 C19.9938025,11.951664 20.3488775,11.359344 20.3488775,10.679984 C20.3488775,9.687504 19.5914775,8.879984 18.6604775,8.879984 L16.6464025,8.879984 C16.5496275,8.551664 16.4491775,8.231024 16.3447025,7.918384 L16.5554025,7.439984 C16.8294525,6.662544 17.2400025,5.361904 18.0647775,4.929584 C19.0993775,4.387504 20.0956525,5.413424 20.7317775,6.053264 C20.9781775,6.301104 21.3696525,6.192784 21.5563775,5.956144 C22.2849025,5.033424 22.8296775,3.291984 24.1918775,2.990864 C24.5707525,2.907184 24.9722025,2.975344 25.2466025,3.237104 C25.5327275,3.509904 25.4144275,3.748304 25.4686775,4.086064 C25.5232775,4.425104 25.7290775,4.723184 26.1042775,4.829584 C26.5776525,4.963984 27.0638025,4.699024 27.4677025,4.514544 C28.2401525,4.161904 29.0056025,3.795504 29.7742025,3.435984 C30.6147275,3.042864 33.3981025,1.562544 33.1606275,3.560784 C33.0216775,4.731184 32.1171025,5.895984 31.3801775,6.822064 C31.1015775,7.172304 30.7934025,7.564784 30.8590275,8.025264 C30.9222025,8.467984 31.2583775,8.629744 31.6110025,8.866384 C32.2301525,9.282224 32.3181775,9.990704 31.6857275,10.439504 M29.4691775,25.351824 C29.4168525,27.088304 29.3071275,28.824624 29.1697525,30.556944 C29.0257275,32.373584 28.8171275,34.187504 28.3642275,35.964144 C28.1827525,36.675824 28.0530775,37.834384 27.2106275,38.153904 C26.7544025,38.326864 26.1637775,38.265104 25.6774525,38.265904 C25.0394025,38.266864 24.4010025,38.266704 23.7627775,38.267024 C19.2371025,38.269904 14.7112525,38.272784 10.1854025,38.275824 C8.4245525,38.276784 6.2437025,38.573264 4.5609025,37.963664 C3.6675275,37.639984 3.3639025,37.006864 3.1960775,36.187664 C2.9944775,35.202864 2.7592775,34.224304 2.5568025,33.239664 C1.7269525,29.203024 1.2826275,25.080304 1.7266025,20.985104 C3.2648525,21.615824 5.0313025,21.624624 6.5949275,20.873264 C7.0634025,20.648144 7.5252275,20.266864 8.0882025,20.362704 C8.5748775,20.445584 9.0190275,20.808304 9.4218775,21.047504 C10.2142775,21.518064 11.0808775,21.871664 12.0437275,21.670384 C12.9747275,21.475984 13.6455025,20.855024 14.4863775,20.495184 C15.5601775,20.035504 16.3837275,21.084784 17.3387025,21.428944 C18.3946525,21.809424 19.5701275,21.808144 20.5811025,21.316144 C21.0681275,21.079184 21.5241775,20.631024 22.0927525,20.575504 C22.5939525,20.526704 23.1165025,20.774224 23.5527775,20.965904 C24.5634025,21.409904 25.6008025,21.896624 26.7568525,21.698704 C27.7512025,21.528624 28.5110525,20.913104 29.3750275,20.493104 C29.7607275,22.057584 29.5166025,23.776784 29.4691775,25.351824 M9.4315025,1.279984 C11.7003775,1.279984 13.9598025,4.186224 15.3561275,8.879984 L14.2699025,8.879984 C13.3389025,8.879984 12.5815025,9.687504 12.5815025,10.679984 C12.5815025,11.389104 12.9691275,12.002064 13.5294775,12.295184 L13.4269275,12.395184 C12.5865775,13.214544 11.9910525,14.227984 11.7007275,15.333104 L11.3778525,16.561584 C11.3426775,16.626704 11.3111775,16.692304 11.2819525,16.758224 C11.1346025,17.034544 11.0441275,17.339504 11.0180525,17.660784 C9.1943775,17.160144 6.0461275,15.218704 5.0458275,17.777584 C4.7800025,18.457424 5.9631775,18.750224 6.2270775,18.075344 C6.6189025,17.072624 8.2131525,17.827984 8.8627525,18.095184 C9.5055275,18.359664 10.1602025,18.617584 10.8437525,18.779984 C10.9008025,18.793584 10.9545275,18.798064 11.0065025,18.798384 L11.0065025,20.172784 C10.3852525,19.992784 9.8306775,19.511824 9.1828275,19.217904 C7.8820525,18.627824 6.9878025,19.079984 5.8000775,19.629744 C4.6263525,20.173104 3.1992275,20.143184 2.0598025,19.559984 L2.0815025,19.559984 C2.0815025,8.625424 5.8819775,1.279984 9.4315025,1.279984 M18.6604775,11.359984 L14.2699025,11.359984 C14.0511525,11.359984 13.8065025,11.069264 13.8065025,10.679984 C13.8065025,10.290704 14.0511525,9.999984 14.2699025,9.999984 L18.6604775,9.999984 C18.8792275,9.999984 19.1238775,10.290704 19.1238775,10.679984 C19.1238775,11.069264 18.8792275,11.359984 18.6604775,11.359984 M20.6827775,17.612784 C20.7169025,17.603984 20.7461275,17.591664 20.7757025,17.579504 C20.7939025,17.664144 20.8065025,17.750544 20.8065025,17.839984 L20.8065025,19.388624 L20.8065025,19.484944 C20.2158775,19.788304 19.7241275,20.225584 19.0071525,20.268144 C17.5175525,20.356144 16.7088775,19.003664 15.2985525,18.905424 C14.0859775,18.820944 13.2461525,19.580144 12.2453275,20.059824 C12.2406025,20.062224 12.2362275,20.063344 12.2315025,20.065584 L12.2315025,17.839984 C12.2315025,17.806064 12.2360525,17.772944 12.2386775,17.739664 C13.5420775,18.121904 14.7369775,17.755664 16.0935775,17.586384 C17.6418025,17.393264 19.1445275,18.006864 20.6827775,17.612784 M20.3572775,16.532784 C19.0761025,16.860944 17.7907275,16.356784 16.4934525,16.425264 C15.2324025,16.491664 13.8448275,17.117424 12.6046025,16.687344 L12.8917775,15.594704 C12.9029775,15.551984 12.9175025,15.510224 12.9299275,15.467824 C13.1815775,14.602224 13.6588025,13.806384 14.3204775,13.161264 L14.7047775,12.786544 C14.8603525,12.657264 15.0066525,12.557424 15.1447275,12.479984 L17.8931025,12.479984 C18.0313525,12.557584 18.1781775,12.657584 18.3339275,12.787184 L19.0418025,13.475024 C19.6158025,14.032784 20.0079775,14.729104 20.1798275,15.490064 C20.1829775,15.503824 20.1873525,15.517104 20.1903275,15.530864 L20.4040025,16.525264 C20.3882525,16.528304 20.3733775,16.528624 20.3572775,16.532784 M32.4086525,8.199344 C32.3845025,8.181904 32.0679275,8.029584 32.0441275,7.988624 C31.8560025,7.664944 32.0912025,7.613424 32.1997025,7.413264 C32.4055025,7.032944 32.7759775,6.681744 33.0187025,6.313264 C33.6802025,5.308784 34.5527525,3.910704 34.1248775,2.693264 C33.7187025,1.538064 32.3400525,1.390864 31.2436775,1.737584 C30.4932775,1.974864 29.7952025,2.349424 29.0904775,2.679024 C28.6804525,2.870704 28.2704275,3.062384 27.8604025,3.254224 C27.6808525,3.338224 26.6137025,3.942384 26.5162275,3.883504 C26.5130775,3.881584 26.4380025,3.148304 26.3886525,3.047984 C26.2624775,2.792144 26.0605275,2.575184 25.8178025,2.405424 C25.2768775,2.027184 24.5705775,1.899664 23.9127525,2.065264 C22.4077525,2.443824 21.7761775,3.808944 21.0243775,4.946704 C20.1766775,4.187664 19.1042775,3.533424 17.8796275,3.926384 C16.8025025,4.272304 16.2185275,5.462224 15.8240775,6.503824 C14.2114525,2.519344 11.9166775,0.159984 9.4315025,0.159984 C4.7026525,0.159984 0.9816275,8.401904 0.8598275,19.022064 C0.5208525,19.071504 0.3057775,19.360464 0.2555525,19.655504 C0.2202025,19.862704 0.2420775,20.072464 0.2417275,20.280784 C0.2413775,20.473104 0.1974525,20.671184 0.1775025,20.864144 C0.1486275,21.141104 0.1234275,21.418224 0.1019025,21.695824 C0.0586775,22.249104 0.0296275,22.803344 0.0140525,23.358064 C-0.0172725,24.464784 0.0046025,25.572624 0.0725025,26.677904 C0.1404025,27.784944 0.2543275,28.889584 0.4062275,29.989584 C0.5336275,30.912304 0.6876275,31.831664 0.8638525,32.747504 C1.0700025,33.819664 1.3206025,34.882864 1.5517775,35.950544 C1.7365775,36.804144 1.8536525,37.663664 2.4920525,38.350064 C3.6852025,39.632784 5.6970025,39.716144 7.4004525,39.717584 C12.5643525,39.721744 17.7284275,39.710864 22.8925025,39.707664 C24.1185525,39.706864 25.3691025,39.768624 26.5925275,39.694704 C27.5275525,39.638064 28.3987025,39.375024 28.9664025,38.655984 C29.5435525,37.924944 29.7378025,36.953424 29.9469275,36.088944 C30.1912275,35.078544 30.3615025,34.054704 30.4952025,33.027344 C30.7858775,30.794864 30.9138025,28.536144 31.0098775,26.290064 C31.0597525,25.124784 31.0830275,23.958064 31.1182025,22.792144 C31.1539025,21.612784 31.1035025,20.440784 30.6401025,19.325904 C30.5881275,19.200624 30.5058775,19.085904 30.4024525,18.994704 C30.9531775,18.443984 31.1497025,17.617264 30.8394275,16.897744 C30.7589275,16.710864 30.6485025,16.539984 30.5065775,16.386224 C30.2269275,16.082864 30.1212275,16.192784 30.4943275,16.041744 C31.1337775,15.783024 31.6911525,15.585264 32.0898025,15.017584 C32.4077775,14.564944 32.5301025,14.002864 32.3874775,13.475024 C32.3183525,13.219024 32.1900775,12.980624 32.0103525,12.775024 C31.8479525,12.589104 31.3703775,12.412304 31.2690525,12.232944 C30.9635025,11.692624 32.4665775,11.189744 32.7744025,10.825744 C33.1189775,10.418224 33.2372775,9.880784 33.1487275,9.376944 C33.0666525,8.909904 32.8157025,8.493424 32.4086525,8.199344" id="Fill-7" fill="#4CA585" fill-rule="evenodd" mask="url(#mask-2)"></path>
                <path d="M28.97489,5.796608 C28.746865,6.707168 27.628615,7.092768 26.880665,7.606048 C26.10699,8.137088 25.61139,8.760928 25.584615,9.669088 C25.56379,10.381088 25.85114,11.091168 25.035815,11.510048 C24.46164,11.804928 23.878015,11.937728 23.362465,12.342688 C22.46944,13.044128 21.98364,14.026368 21.88389,15.087968 C21.82614,15.703328 22.87649,15.699968 22.93389,15.087968 C22.99899,14.395648 23.30349,13.762528 23.830415,13.259168 C24.331265,12.780768 24.944115,12.627168 25.565715,12.339008 C26.70339,11.811328 26.65509,10.938368 26.64109,9.914528 C26.61449,7.975808 29.531565,7.871968 29.98744,6.051808 C30.13794,5.450368 29.125915,5.193728 28.97489,5.796608" id="Fill-10" fill="#4CA585" fill-rule="evenodd" mask="url(#mask-2)"></path>
                <path d="M28.67641,14.032544 C27.56166,14.767584 25.92121,13.643264 24.930185,14.780704 C24.65211,15.099584 25.144385,15.555424 25.425085,15.233184 C25.914385,14.671744 26.73356,14.862944 27.411335,14.909824 C27.994085,14.950144 28.544635,14.905184 29.029735,14.585184 C29.39181,14.346464 29.042685,13.790944 28.67641,14.032544" id="Fill-12" fill="#4CA585" fill-rule="evenodd" mask="url(#mask-2)"></path>
                <path d="M22.9613125,10.900752 C22.6256625,10.267472 23.4789625,9.556112 23.5944625,8.939792 C23.7076875,8.335792 23.4336375,7.746032 23.5640125,7.141232 C23.6506375,6.738992 22.9761875,6.566832 22.8890375,6.971152 C22.6928625,7.881232 23.1039375,8.660912 22.5768375,9.526992 C22.2319125,10.094032 22.0336375,10.614032 22.3568625,11.223792 C22.5533875,11.594352 23.1571375,11.270192 22.9613125,10.900752" id="Fill-14" fill="#4CA585" fill-rule="evenodd" mask="url(#mask-2)"></path>
                <path d="M26.22739,18.364192 C25.78674,18.419072 25.33769,18.311072 24.99679,18.046272 C24.780315,17.878112 24.61739,17.662592 24.381665,17.512992 C24.01819,17.281952 23.553215,17.219392 23.183965,17.469952 C22.82609,17.712512 23.17469,18.268192 23.537115,18.022432 C23.935065,17.752832 24.602865,18.620192 24.959515,18.788352 C25.425015,19.008032 25.902765,19.044992 26.413415,18.981312 C26.857915,18.925952 26.668565,18.309152 26.22739,18.364192" id="Fill-16" fill="#4CA585" fill-rule="evenodd" mask="url(#mask-2)"></path>
            </g>
        </g>
    </g>
</svg>