<?xml version="1.0" encoding="UTF-8"?>
<svg width="28px" height="40px" viewBox="0 0 28 40" version="1.1" xmlns="http://www.w3.org/2000/svg" xmlns:xlink="http://www.w3.org/1999/xlink">
    <!-- Generator: Sketch 51.2 (57519) - http://www.bohemiancoding.com/sketch -->
    <title>MEDICAL</title>
    <desc>Created with Sketch.</desc>
    <defs>
        <polygon id="path-1" points="0 0 27.9754524 0 27.9754524 39.9999342 0 39.9999342"></polygon>
    </defs>
    <g id="NUMU-Prototype" stroke="none" stroke-width="1" fill="none" fill-rule="evenodd">
        <g id="Home-Page-/-Categories" transform="translate(-89.000000, -631.000000)">
            <g id="MEDICAL" transform="translate(89.000000, 631.000000)">
                <g id="Group-6">
                    <g id="Group-3">
                        <mask id="mask-2" fill="white">
                            <use xlink:href="#path-1"></use>
                        </mask>
                        <g id="Clip-2"></g>
                        <path d="M1.49112426,22.128823 C1.49112426,21.0894815 2.34222485,20.2437202 3.38849704,20.2437202 C4.43476923,20.2437202 5.28586982,21.0894815 5.28586982,22.128823 C5.28586982,23.1683292 4.43476923,24.0139259 3.38849704,24.0139259 C2.34222485,24.0139259 1.49112426,23.1683292 1.49112426,22.128823 M26.8435503,3.28026337 C25.6115503,1.46511934 23.5605917,0.381497942 21.3570414,0.381497942 L19.5887337,0.381497942 C19.3816331,0.148082305 19.0795976,-6.58436214e-05 18.7426036,-6.58436214e-05 C18.1198107,-6.58436214e-05 17.6131598,0.503308642 17.6131598,1.12223868 C17.6131598,1.74100412 18.1198107,2.2443786 18.7426036,2.2443786 C19.0795976,2.2443786 19.3816331,2.09623045 19.5887337,1.86297942 L21.3570414,1.86297942 C23.0895621,1.86297942 24.6386746,2.68141564 25.6072426,4.10857613 C26.5758107,5.53573663 26.7588876,7.26939918 26.1094201,8.86511934 L21.2294675,20.8552428 C20.3548402,23.0040494 18.500213,23.8843786 16.9105089,24.0182058 L16.0438343,24.0182058 C14.4542959,23.8843786 12.599503,23.0040494 11.7250414,20.8552428 L6.84508876,8.86511934 C6.1956213,7.26939918 6.37869822,5.53573663 7.34726627,4.10857613 C8.31583432,2.68141564 9.86494675,1.86297942 11.5974675,1.86297942 L13.3656095,1.86297942 C13.5727101,2.09623045 13.8749112,2.2443786 14.2119053,2.2443786 C14.8346982,2.2443786 15.3413491,1.74100412 15.3413491,1.12223868 C15.3413491,0.503308642 14.8346982,-6.58436214e-05 14.2119053,-6.58436214e-05 C13.8749112,-6.58436214e-05 13.5727101,0.148082305 13.3656095,0.381497942 L11.5974675,0.381497942 C9.39391716,0.381497942 7.3427929,1.46511934 6.11095858,3.28026337 C4.87895858,5.09540741 4.63656805,7.39088066 5.46265089,9.42051029 L10.3426036,21.4106337 C11.2869822,23.7307984 13.3374438,25.2427325 15.7881893,25.4827325 L15.7881893,32.7553251 C15.7881893,35.9331029 13.1861775,38.5184527 9.9875503,38.5184527 C6.78908876,38.5184527 4.18691124,35.9331029 4.18691124,32.7553251 L4.18691124,25.3969712 C5.67074556,25.0389465 6.77699408,23.7115391 6.77699408,22.128823 C6.77699408,20.2725267 5.25687574,18.7622387 3.38849704,18.7622387 C1.52011834,18.7622387 0,20.2725267 0,22.128823 C0,23.7493992 1.15860355,25.1056132 2.69578698,25.4242963 L2.69578698,32.7553251 C2.69578698,36.7500576 5.96698225,39.9999342 9.9875503,39.9999342 C14.008284,39.9999342 17.2793136,36.7500576 17.2793136,32.7553251 L17.2793136,25.4705514 C19.6800237,25.1953251 21.6821065,23.6950782 22.6119053,21.4106337 L27.491858,9.42051029 C28.3177751,7.39088066 28.0755503,5.09540741 26.8435503,3.28026337" id="Fill-1" fill="#4CA585" mask="url(#mask-2)"></path>
                    </g>
                    <path d="M20.4312852,9.52521811 L20.4312852,11.9752593 L18.5387172,11.9752593 L17.7103148,11.9752593 L17.7103148,12.7983045 L17.7103148,14.6786337 L15.2441609,14.6786337 L15.2441609,12.7983045 L15.2441609,11.9752593 L14.4157586,11.9752593 L12.5231905,11.9752593 L12.5231905,9.52521811 L14.4157586,9.52521811 L15.2441609,9.52521811 L15.2441609,8.70217284 L15.2441609,6.82184362 L17.7103148,6.82184362 L17.7103148,8.70217284 L17.7103148,9.52521811 L18.5387172,9.52521811 L20.4312852,9.52521811 Z M17.7847053,5.99879835 L15.1696047,5.99879835 C14.7550722,5.99879835 14.4157586,6.33575309 14.4157586,6.74760494 L14.4157586,8.70217284 L12.4486343,8.70217284 C12.0339361,8.70217284 11.6947882,9.03912757 11.6947882,9.45114403 L11.6947882,12.0493333 C11.6947882,12.4611852 12.0339361,12.7983045 12.4486343,12.7983045 L14.4157586,12.7983045 L14.4157586,14.7527078 C14.4157586,15.1647243 14.7550722,15.501679 15.1696047,15.501679 L17.7847053,15.501679 C18.1994036,15.501679 18.5387172,15.1647243 18.5387172,14.7527078 L18.5387172,12.7983045 L20.5058414,12.7983045 C20.920374,12.7983045 21.2596876,12.4611852 21.2596876,12.0493333 L21.2596876,9.45114403 C21.2596876,9.03912757 20.920374,8.70217284 20.5058414,8.70217284 L18.5387172,8.70217284 L18.5387172,6.74760494 C18.5387172,6.33575309 18.1994036,5.99879835 17.7847053,5.99879835 Z" id="Fill-4" fill="#4CA585"></path>
                </g>
            </g>
        </g>
    </g>
</svg>