<?xml version="1.0" encoding="UTF-8"?>
<svg width="30px" height="25px" viewBox="0 0 30 25" version="1.1" xmlns="http://www.w3.org/2000/svg" xmlns:xlink="http://www.w3.org/1999/xlink">
    <!-- Generator: Sketch 51.2 (57519) - http://www.bohemiancoding.com/sketch -->
    <title>Fill 10</title>
    <desc>Created with Sketch.</desc>
    <defs></defs>
    <g id="Symbols" stroke="none" stroke-width="1" fill="none" fill-rule="evenodd">
        <g id="Bottom-Navigation" transform="translate(-173.000000, -12.000000)" fill="#FFFCF7">
            <path d="M187.999827,12 C179.715665,12 173,18.3956667 173,26.2856667 C173,30.554 174.9677,34.382 178.083628,37 C178.539811,32.712 180.986831,29.136 184.329987,27.5516667 C183.147917,26.5266667 182.399929,25.0446667 182.399929,23.39 C182.399929,20.2983333 184.996478,17.7916667 188.199774,17.7916667 C191.403071,17.7916667 193.999965,20.2983333 193.999965,23.39 C193.999965,25.0446667 193.251977,26.5266667 192.069907,27.5516667 C195.329838,29.0966667 197.743016,32.534 198.28415,36.68 C201.185973,34.075 203,30.383 203,26.2856667 C203,18.3956667 196.283989,12 187.999827,12" id="Fill-10"></path>
        </g>
    </g>
</svg>