<?xml version="1.0" encoding="UTF-8"?>
<svg width="164px" height="34px" viewBox="0 0 164 34" version="1.1" xmlns="http://www.w3.org/2000/svg" xmlns:xlink="http://www.w3.org/1999/xlink">
    <!-- Generator: Sketch 51.2 (57519) - http://www.bohemiancoding.com/sketch -->
    <title>logo copy</title>
    <desc>Created with Sketch.</desc>
    <defs>
        <polygon id="path-1" points="0.136416185 0.0912724138 49.9317919 0.0912724138 49.9317919 34 0.136416185 34"></polygon>
    </defs>
    <g id="NUMU-Prototype" stroke="none" stroke-width="1" fill="none" fill-rule="evenodd">
        <g id="Landing-Page" transform="translate(-106.000000, -300.000000)">
            <g id="logo-copy" transform="translate(106.000000, 300.000000)">
                <path d="M51,33 C43.2007093,33 37,26.8711835 37,19.3757061 L37,2.59293883 C37,1.13164096 38.1622841,0 39.6642043,0 C41.1173533,0 42.3771799,1.13164096 42.3771799,2.59293883 L42.3771799,19.3757061 C42.3771799,23.9957633 46.2524396,27.7672327 51,27.7672327 C55.7957441,27.7672327 59.6228201,23.9957633 59.6228201,19.3757061 L59.6228201,2.59293883 C59.6228201,1.13164096 60.8344631,0 62.3357957,0 C63.8377159,0 65,1.13164096 65,2.59293883 L65,19.3757061 C65,26.8711835 58.751107,33 51,33" id="Fill-1" fill="#FFFFFF"></path>
                <path d="M14,0 C21.7992907,0 28,6.1288165 28,13.6242939 L28,30.4070612 C28,31.868359 26.8377159,33 25.3357957,33 C23.8826467,33 22.6228201,31.868359 22.6228201,30.4070612 L22.6228201,13.6242939 C22.6228201,9.0042367 18.7475604,5.2330532 14,5.2330532 C9.20425594,5.2330532 5.37717991,9.0042367 5.37717991,13.6242939 L5.37717991,30.4070612 C5.37717991,31.868359 4.16583073,33 2.66420432,33 C1.16228411,33 0,31.868359 0,30.4070612 L0,13.6242939 C0,6.1288165 6.24889299,0 14,0" id="Fill-3" fill="#FFFFFF"></path>
                <g id="Group-7" transform="translate(75.000000, 0.000000)">
                    <mask id="mask-2" fill="white">
                        <use xlink:href="#path-1"></use>
                    </mask>
                    <g id="Clip-6"></g>
                    <path d="M36.1598266,0.170117241 C31.6017341,0.170117241 27.5728324,2.41646207 25.0684971,5.86453103 C22.5774566,2.37249655 18.5294798,0.0912724138 13.9083815,0.0912724138 C6.28352601,0.0912724138 0.136416185,6.37394483 0.136416185,14.0582379 L0.136416185,31.2631172 C0.136416185,32.761169 1.27976879,33.9212724 2.75722543,33.9212724 C4.23410405,33.9212724 5.42601156,32.761169 5.42601156,31.2631172 L5.42601156,14.0582379 C5.42601156,9.32197931 9.19075145,5.45565172 13.9083815,5.45565172 C18.5725434,5.45565172 22.3806358,9.3123069 22.3901734,14.0403586 C22.3898844,14.0728931 22.3878613,14.1045483 22.3878613,14.1367897 L22.3878613,31.3419621 C22.3878613,32.8400138 23.5312139,34.0001172 25.0086705,34.0001172 C26.4855491,34.0001172 27.6774566,32.8400138 27.6774566,31.3419621 L27.6774566,31.3229103 C27.6777457,31.3029793 27.6803468,31.2833414 27.6803468,31.2631172 L27.6803468,14.0582379 C27.6803468,14.0520828 27.6797688,14.0462207 27.6797688,14.0397724 C27.7312139,9.34806552 31.4745665,5.53449655 36.1598266,5.53449655 C40.8300578,5.53449655 44.6421965,9.40053103 44.6421965,14.1367897 L44.6421965,31.3419621 C44.6421965,32.8400138 45.8815029,34.0001172 47.3109827,34.0001172 C48.7884393,34.0001172 49.9317919,32.8400138 49.9317919,31.3419621 L49.9317919,14.1367897 C49.9317919,6.45308276 43.8320809,0.170117241 36.1598266,0.170117241" id="Fill-5" fill="#FFFFFF" mask="url(#mask-2)"></path>
                </g>
                <path d="M150,33 C142.200709,33 136,26.8711827 136,19.3757043 L136,2.6692734 C136,1.35607794 136.970431,0.193272381 138.308409,0.022582703 C139.905521,-0.180700984 141.37718,1.01355494 141.37718,2.5929348 L141.37718,19.1692756 C141.37718,24.0878259 145.622337,28.1123282 150.662525,27.7429295 C155.143607,27.4147021 158.62282,23.7810419 158.62282,19.3757043 L158.62282,2.73246003 C158.62282,1.23399336 159.883528,-0.0437489641 161.422761,0.00142518852 C162.882374,0.0440261299 164,1.15994206 164,2.5929348 L164,19.3757043 C164,26.8711827 157.751107,33 150,33" id="Fill-8" fill="#FFFFFF"></path>
            </g>
        </g>
    </g>
</svg>