<?xml version="1.0" encoding="UTF-8"?>
<svg width="58px" height="12px" viewBox="0 0 58 12" version="1.1" xmlns="http://www.w3.org/2000/svg" xmlns:xlink="http://www.w3.org/1999/xlink">
    <!-- Generator: Sketch 51.2 (57519) - http://www.bohemiancoding.com/sketch -->
    <title>logo copy</title>
    <desc>Created with Sketch.</desc>
    <defs>
        <polygon id="path-1" points="0.0491098266 0.0322137931 17.9754451 0.0322137931 17.9754451 12 0.0491098266 12"></polygon>
    </defs>
    <g id="NUMU-Prototype" stroke="none" stroke-width="1" fill="none" fill-rule="evenodd">
        <g id="Restaurant-Page" transform="translate(-159.000000, -44.000000)">
            <g id="logo-copy" transform="translate(159.000000, 44.000000)">
                <path d="M18,12 C15.214539,12 13,9.77133946 13,7.04571132 L13,0.942886848 C13,0.411505805 13.4151015,0 13.9515015,0 C14.4704833,0 14.9204214,0.411505805 14.9204214,0.942886848 L14.9204214,7.04571132 C14.9204214,8.72573211 16.3044427,10.0971755 18,10.0971755 C19.7127657,10.0971755 21.0795786,8.72573211 21.0795786,7.04571132 L21.0795786,0.942886848 C21.0795786,0.411505805 21.5123082,0 22.0484985,0 C22.5848985,0 23,0.411505805 23,0.942886848 L23,7.04571132 C23,9.77133946 20.7682525,12 18,12" id="Fill-1" fill="#FFC56D"></path>
                <path d="M5,0 C7.78546096,0 10,2.22866054 10,4.95428868 L10,11.0571132 C10,11.5884942 9.58489853,12 9.04849846,12 C8.52951669,12 8.0795786,11.5884942 8.0795786,11.0571132 L8.0795786,4.95428868 C8.0795786,3.27426789 6.69555728,1.90292844 5,1.90292844 C3.28723427,1.90292844 1.9204214,3.27426789 1.9204214,4.95428868 L1.9204214,11.0571132 C1.9204214,11.5884942 1.48779669,12 0.951501542,12 C0.415101467,12 0,11.5884942 0,11.0571132 L0,4.95428868 C0,2.22866054 2.2317475,0 5,0" id="Fill-3" fill="#FFC56D"></path>
                <g id="Group-7" transform="translate(27.000000, 0.000000)">
                    <mask id="mask-2" fill="white">
                        <use xlink:href="#path-1"></use>
                    </mask>
                    <g id="Clip-6"></g>
                    <path d="M13.0175376,0.0600413793 C11.3766243,0.0600413793 9.92621965,0.852868966 9.02465896,2.06983448 C8.12788439,0.837351724 6.67061272,0.0322137931 5.00701734,0.0322137931 C2.26206936,0.0322137931 0.0491098266,2.24962759 0.0491098266,4.96173103 L0.0491098266,11.0340414 C0.0491098266,11.5627655 0.460716763,11.9722138 0.992601156,11.9722138 C1.52427746,11.9722138 1.95336416,11.5627655 1.95336416,11.0340414 L1.95336416,4.96173103 C1.95336416,3.29011034 3.30867052,1.92552414 5.00701734,1.92552414 C6.68611561,1.92552414 8.0570289,3.28669655 8.06046243,4.95542069 C8.06035838,4.96690345 8.05963006,4.97807586 8.05963006,4.98945517 L8.05963006,11.061869 C8.05963006,11.5905931 8.47123699,12.0000414 9.00312139,12.0000414 C9.53479769,12.0000414 9.96388439,11.5905931 9.96388439,11.061869 L9.96388439,11.0551448 C9.96398844,11.0481103 9.96492486,11.0411793 9.96492486,11.0340414 L9.96492486,4.96173103 C9.96492486,4.95955862 9.96471676,4.95748966 9.96471676,4.95521379 C9.98323699,3.29931724 11.3308439,1.95335172 13.0175376,1.95335172 C14.6988208,1.95335172 16.0711908,3.31783448 16.0711908,4.98945517 L16.0711908,11.061869 C16.0711908,11.5905931 16.517341,12.0000414 17.0319538,12.0000414 C17.5638382,12.0000414 17.9754451,11.5905931 17.9754451,11.061869 L17.9754451,4.98945517 C17.9754451,2.27755862 15.7795491,0.0600413793 13.0175376,0.0600413793" id="Fill-5" fill="#FFC56D" mask="url(#mask-2)"></path>
                </g>
                <path d="M53,12 C50.214539,12 48,9.77133916 48,7.04571066 L48,0.970644873 C48,0.493119251 48.3465824,0.0702808658 48.8244318,0.00821189201 C49.3948291,-0.0657094486 49.9204214,0.368565431 49.9204214,0.942885383 L49.9204214,6.97064567 C49.9204214,8.75920941 51.4365491,10.2226648 53.2366162,10.088338 C54.8370024,9.96898258 56.0795786,8.64765161 56.0795786,7.04571066 L56.0795786,0.99362183 C56.0795786,0.44872486 56.5298315,-0.0159087142 57.0795576,0.000518250372 C57.6008478,0.0160095018 58,0.421797114 58,0.942885383 L58,7.04571066 C58,9.77133916 55.7682525,12 53,12" id="Fill-8" fill="#FFC56D"></path>
            </g>
        </g>
    </g>
</svg>