<?xml version="1.0" encoding="UTF-8"?>
<svg width="41px" height="40px" viewBox="0 0 41 40" version="1.1" xmlns="http://www.w3.org/2000/svg" xmlns:xlink="http://www.w3.org/1999/xlink">
    <!-- Generator: Sketch 51.2 (57519) - http://www.bohemiancoding.com/sketch -->
    <title>RECEREATION</title>
    <desc>Created with Sketch.</desc>
    <defs>
        <polygon id="path-1" points="0.0198704724 0.138608696 13.9231884 0.138608696 13.9231884 13.7549407 0.0198704724 13.7549407"></polygon>
        <polygon id="path-3" points="0 0.120395257 13.9032937 0.120395257 13.9032937 13.7368379 0 13.7368379"></polygon>
        <polygon id="path-5" points="0.106906693 0.018972332 15.6518307 0.018972332 15.6518307 15.2447115 0.106906693 15.2447115"></polygon>
    </defs>
    <g id="NUMU-Prototype" stroke="none" stroke-width="1" fill="none" fill-rule="evenodd">
        <g id="Home-Page-/-Categories" transform="translate(-251.000000, -308.000000)">
            <g id="RECEREATION" transform="translate(251.000000, 308.000000)">
                <g id="Group-26">
                    <path d="M22.0374354,29.5645059 L20.9033173,30.6751779 C20.6200299,30.9526482 14.6808409,36.7425296 14.6808409,36.7425296 C14.3463843,37.0702767 14.3463843,37.6033992 14.6808409,37.9309881 L15.3224748,38.5596047 C15.4832465,38.716917 15.6987386,38.8037154 15.9290811,38.8037154 C16.159585,38.8037154 16.3749157,38.7170751 16.5356874,38.5596047 L16.9471402,38.1564427 C16.9566638,38.1365217 16.9650575,38.1161265 16.9755496,38.0965217 C16.9979866,38.0544664 17.0226835,38.0133597 17.0494787,37.9735178 C17.1033921,37.8933597 17.1661835,37.8174704 17.2380142,37.7471146 L29.2355181,25.9959684 C29.5226795,25.7147036 30.0648803,25.3082213 30.0648803,25.3082213 C30.399337,24.9806324 30.399337,24.4475099 30.0648803,24.1197628 L29.423085,23.4913043 C29.2623134,23.333834 29.0469827,23.2471937 28.8164787,23.2471937 C28.5861362,23.2471937 28.3706441,23.333834 28.2100339,23.4913043 L22.1844866,29.3931225" id="Fill-1" fill="#4CA585"></path>
                    <path d="M10.6362394,18.3974229 L16.8369244,12.3518893 C17.1713811,12.0241423 17.1713811,11.4910198 16.8369244,11.1634308 L16.1951291,10.5349723 C16.0343575,10.377502 15.8188654,10.2908617 15.5885228,10.2908617 C15.3580189,10.2908617 15.1426882,10.377502 14.9819165,10.5349723 L14.5704638,10.9379763 C14.4999244,11.0862767 14.4042039,11.2255652 14.2797512,11.3473043 L2.28224724,23.0984506 C2.13858583,23.2391621 1.97216457,23.3446166 1.79444409,23.4148142 C1.81817244,23.4054862 1.8410937,23.3939447 1.8643378,23.3831937 L1.45272362,23.7863557 C1.11826693,24.1137866 1.11826693,24.6469091 1.45272362,24.9746561 L2.0945189,25.6031146 C2.25529055,25.760585 2.47078268,25.8472253 2.7011252,25.8472253 C2.93162913,25.8472253 3.14695984,25.760585 3.3077315,25.6031146 L9.35410157,19.6809012 C9.39865276,19.620664 9.44675512,19.5623241 9.50212126,19.508253 L10.6362394,18.3974229" id="Fill-3" fill="#4CA585"></path>
                    <g id="Group-7" transform="translate(17.594488, 26.226087)">
                        <mask id="mask-2" fill="white">
                            <use xlink:href="#path-1"></use>
                        </mask>
                        <g id="Clip-6"></g>
                        <path d="M13.7274295,0.88627668 L13.158272,0.328964427 C13.0330122,0.206118577 12.8649768,0.138608696 12.6849965,0.138608696 C12.5050161,0.138608696 12.3369807,0.206118577 12.2117209,0.328964427 L0.214216929,12.0801107 C0.0887956693,12.2027984 0.0198704724,12.3673834 0.0198704724,12.5435099 C0.0198704724,12.7199526 0.0887956693,12.8845375 0.214055512,13.0072253 L0.783374409,13.5645375 C0.908472835,13.6873834 1.07666969,13.7550514 1.25648858,13.7550514 C1.4364689,13.7550514 1.60450433,13.6873834 1.72976417,13.5645375 L13.7274295,1.8133913 C13.9884413,1.55789723 13.9884413,1.14192885 13.7274295,0.88627668" id="Fill-5" fill="#4CA585" mask="url(#mask-2)"></path>
                    </g>
                    <path d="M26.9574354,33.7582451 C26.8055417,33.7582451 26.6636559,33.8151621 26.5579276,33.9187194 L25.3046835,35.1462292 C25.0843488,35.3620395 25.0843488,35.7130277 25.3046835,35.9288379 L26.0213764,36.6308142 C26.1269433,36.7342134 26.2688291,36.7912885 26.4208843,36.7912885 C26.5729394,36.7912885 26.7148252,36.7342134 26.8203921,36.6308142 L28.0736362,35.4031462 C28.2902583,35.1911304 28.2902583,34.8328696 28.0736362,34.6206957 L27.3569433,33.9187194 C27.251215,33.8151621 27.1093291,33.7582451 26.9574354,33.7582451" id="Fill-8" fill="#4CA585"></path>
                    <g id="Group-12" transform="translate(0.000000, 8.992885)">
                        <mask id="mask-4" fill="white">
                            <use xlink:href="#path-3"></use>
                        </mask>
                        <g id="Clip-11"></g>
                        <path d="M0.195734646,12.98917 L0.764892126,13.5464822 C0.890151969,13.6693281 1.0581874,13.7368379 1.23816772,13.7368379 C1.41814803,13.7368379 1.58618346,13.6693281 1.71144331,13.5466403 L13.7089472,1.79533597 C13.8343685,1.67280632 13.9032937,1.50806324 13.9032937,1.33193676 C13.9032937,1.15549407 13.8343685,0.990909091 13.7091087,0.868221344 L13.1397898,0.310909091 C13.0146913,0.188063241 12.8464945,0.120395257 12.6666756,0.120395257 C12.4866953,0.120395257 12.3186598,0.188063241 12.1934,0.310909091 L0.195734646,12.0620553 C-0.0652771654,12.3177075 -0.0652771654,12.7336759 0.195734646,12.98917" id="Fill-10" fill="#4CA585" mask="url(#mask-4)"></path>
                    </g>
                    <path d="M4.56021693,15.3361897 C4.71211063,15.3361897 4.85399646,15.2792727 4.9597248,15.1757154 L6.2129689,13.9482055 C6.42959094,13.7361897 6.42959094,13.3777708 6.2129689,13.1655968 L5.49627598,12.4636206 C5.39054764,12.3602213 5.24866181,12.3031462 5.09676811,12.3031462 C4.94471299,12.3031462 4.80282717,12.3602213 4.69726024,12.4636206 L3.44401614,13.6912885 C3.3382878,13.7946877 3.28017756,13.9336601 3.28017756,14.0824348 C3.28017756,14.2313676 3.3382878,14.3703399 3.44385472,14.4737391 L4.16070906,15.1757154 C4.2664374,15.2792727 4.40832323,15.3361897 4.56021693,15.3361897" id="Fill-13" fill="#4CA585"></path>
                    <path d="M10.0727638,20.9664348 L19.4144685,30.1163162 C19.5360157,30.2353676 19.6990472,30.3008221 19.8735394,30.3008221 C20.0480315,30.3008221 20.211063,30.2353676 20.3326102,30.1163162 L21.4667283,29.0054862 C21.5882756,28.8864348 21.6551024,28.726751 21.6551024,28.5558419 C21.6551024,28.3849328 21.5882756,28.225249 21.4667283,28.1061976 L12.1250236,18.9563162 C12.0034764,18.8372648 11.8406063,18.7718103 11.6659528,18.7718103 C11.4914606,18.7718103 11.3284291,18.8372648 11.2068819,18.9563162 L10.0727638,20.0673043 C9.81966142,20.3152095 9.81966142,20.7185296 10.0727638,20.9664348" id="Fill-15" fill="#4CA585"></path>
                    <path d="M26.3826929,9.13497233 L26.4601732,9.05924111 C26.5228031,8.99805534 26.5959252,8.95062451 26.6758268,8.91457708 L25.2056378,7.47457708 C24.9320354,8.83125692 25.102815,10.2647747 25.7399291,11.5501502 L26.3826929,9.13497233 Z" id="Fill-17" fill="#4CA585"></path>
                    <path d="M33.5245217,15.6225929 L32.0543327,14.182751 C32.0176909,14.2610119 31.9692657,14.3326324 31.9067972,14.3938182 L31.8293169,14.4697075 L29.3635059,15.0994308 C30.6758287,15.7236206 32.139561,15.8905771 33.5245217,15.6225929" id="Fill-19" fill="#4CA585"></path>
                    <g id="Group-23" transform="translate(25.342520, 0.139130)">
                        <mask id="mask-6" fill="white">
                            <use xlink:href="#path-5"></use>
                        </mask>
                        <g id="Clip-22"></g>
                        <path d="M13.7253634,2.47332806 L13.1460366,1.90573913 C10.5774028,-0.609992095 6.39814685,-0.609992095 3.82951299,1.90573913 L1.66248543,4.02842688 C0.944824016,4.73119368 0.424898819,5.56455336 0.106906693,6.45641107 L9.07961142,15.2447115 C9.99000512,14.9334071 10.8408358,14.424 11.5583358,13.7212332 L13.7253634,11.5987036 C16.2939972,9.08281423 16.2939972,4.98921739 13.7253634,2.47332806" id="Fill-21" fill="#4CA585" mask="url(#mask-6)"></path>
                    </g>
                    <path d="M31.3230315,13.7820237 C31.3044685,13.6582292 31.2060039,13.417913 30.9564528,13.1736443 L27.7059921,9.98992885 C27.4564409,9.74566008 27.211248,9.64905929 27.0848583,9.63087747 L26.1500906,13.1426561 L26.0592126,13.2223399 C23.1783976,15.7417075 20.1048504,18.6372016 19.5952559,19.4337233 L21.3146732,21.117834 C22.1278937,20.6187036 25.084252,17.6081107 27.656437,14.7866087 L27.7376299,14.6975968 L31.3230315,13.7820237 Z" id="Fill-24" fill="#4CA585"></path>
                </g>
            </g>
        </g>
    </g>
</svg>