<?xml version="1.0" encoding="UTF-8"?>
<svg width="66px" height="40px" viewBox="0 0 66 40" version="1.1" xmlns="http://www.w3.org/2000/svg" xmlns:xlink="http://www.w3.org/1999/xlink">
    <!-- Generator: Sketch 51.2 (57519) - http://www.bohemiancoding.com/sketch -->
    <title>RESTAURANTS</title>
    <desc>Created with Sketch.</desc>
    <defs>
        <polygon id="path-1" points="0 0.0778536585 65.9999612 0.0778536585 65.9999612 2.14634146 0 2.14634146"></polygon>
    </defs>
    <g id="NUMU-Prototype" stroke="none" stroke-width="1" fill="none" fill-rule="evenodd">
        <g id="Subcategories---Food" transform="translate(-69.000000, -148.000000)">
            <g id="RESTAURANTS" transform="translate(69.000000, 148.000000)">
                <g id="Group-8">
                    <g id="Group-3" transform="translate(0.000000, 37.786146)">
                        <mask id="mask-2" fill="white">
                            <use xlink:href="#path-1"></use>
                        </mask>
                        <g id="Clip-2"></g>
                        <path d="M65.0293729,2.14634146 L0.970549412,2.14634146 C0.436725882,2.14634146 -3.88235294e-05,1.70731707 -3.88235294e-05,1.17073171 L-3.88235294e-05,1.05346341 C-3.88235294e-05,0.516878049 0.436725882,0.0778536585 0.970549412,0.0778536585 L65.0293729,0.0778536585 C65.5631965,0.0778536585 65.9999612,0.516878049 65.9999612,1.05346341 L65.9999612,1.17073171 C65.9999612,1.70731707 65.5631965,2.14634146 65.0293729,2.14634146" id="Fill-1" fill="#4CA585" mask="url(#mask-2)"></path>
                    </g>
                    <path d="M35.1667218,2.43916098 C35.1667218,3.7860878 34.0804394,4.87818537 32.7402512,4.87818537 C31.4002571,4.87818537 30.3137806,3.7860878 30.3137806,2.43916098 C30.3137806,1.09203902 31.4002571,0.000136585366 32.7402512,0.000136585366 C34.0804394,0.000136585366 35.1667218,1.09203902 35.1667218,2.43916098" id="Fill-4" fill="#4CA585"></path>
                    <path d="M25.8741935,11.6733463 C25.2617524,12.1683707 24.5460406,12.5152976 23.83887,12.8495415 C20.8083053,14.2815415 19.1482112,14.7451512 18.7974406,14.9020293 C14.9046053,16.6427122 10.4321347,19.6321756 7.20609353,22.5798829 C8.59209353,19.6795902 11.3182818,16.9293463 13.7430053,14.7867122 C14.4156229,14.1923707 15.0901818,13.6749073 15.7843465,13.1057366 C16.6770935,12.3742244 17.7752171,11.7422244 18.7473582,11.1193951 C19.9677759,10.3373463 21.4551053,9.54124878 22.8209171,9.06729756 C23.4226818,8.85832195 24.0390053,8.72349268 24.6545524,8.5787122 C25.2339935,8.44251707 25.8200347,8.46651707 26.3571582,8.74710244 C26.7158876,8.93461463 26.9166053,9.17110244 27.0022112,9.43100488 C27.2528171,10.192761 26.5147818,11.1556878 25.8741935,11.6733463 M64.3141465,34.4157854 C62.8473935,18.3277854 49.3878582,5.72759024 33.0000582,5.72759024 C16.6122582,5.72759024 3.15252882,18.3277854 1.68597,34.4157854 C1.58134059,35.5611512 2.47564059,36.5508098 3.61977,36.5508098 L62.3803465,36.5508098 C63.5244759,36.5508098 64.4185818,35.5611512 64.3141465,34.4157854" id="Fill-6" fill="#4CA585"></path>
                </g>
            </g>
        </g>
    </g>
</svg>