<?xml version="1.0" encoding="UTF-8"?>
<svg width="26px" height="25px" viewBox="0 0 26 25" version="1.1" xmlns="http://www.w3.org/2000/svg" xmlns:xlink="http://www.w3.org/1999/xlink">
    <!-- Generator: Sketch 51.2 (57519) - http://www.bohemiancoding.com/sketch -->
    <title>Fill 6</title>
    <desc>Created with Sketch.</desc>
    <defs></defs>
    <g id="Symbols" stroke="none" stroke-width="1" fill="none" fill-rule="evenodd">
        <g id="Bottom-Navigation" transform="translate(-336.000000, -12.000000)" fill="#FFFCF7">
            <path d="M348.990548,29.1693219 C346.375715,29.1499886 344.29297,27.06099 344.317294,24.4819917 C344.34128,21.98066 346.47166,19.9146614 349.015547,19.9263281 C351.617205,19.9386614 353.705017,22.03466 353.688125,24.6183249 C353.671909,27.1139899 351.531395,29.1879886 348.990548,29.1693219 M361.392423,24.0293253 C360.759322,23.6839922 360.132641,23.3256591 359.484676,23.0096593 C359.11914,22.8319928 358.885359,22.6176596 358.845494,22.1936599 C358.828265,22.00566 358.828603,21.8633268 358.943804,21.7069935 C359.425893,21.0553273 359.897509,20.3959944 360.371489,19.7383282 C360.73635,19.2319952 360.733309,18.8239955 360.34649,18.3426624 C359.452919,17.2299965 358.555971,16.1199973 357.656658,15.011998 C357.279973,14.547665 356.862411,14.4449984 356.307688,14.6723316 C355.648574,14.941998 354.980677,15.1939979 354.337104,15.4966643 C353.948933,15.6796642 353.616505,15.7109975 353.242185,15.4759977 C353.080362,15.3743311 352.970904,15.2859978 352.919554,15.0976646 C352.714489,14.3463318 352.492532,13.5996656 352.278007,12.8509994 C352.111118,12.2676665 351.763825,12.0016667 351.154373,12.001 C349.724998,11.9996667 348.295286,11.9996667 346.865574,12.001 C346.23619,12.0013333 345.899707,12.2583332 345.724709,12.8646661 C345.541941,13.4973323 345.326403,14.1226653 345.18654,14.7643315 C345.092285,15.1979979 344.896341,15.4719977 344.468982,15.6153309 C344.299389,15.6719976 344.168985,15.6993309 343.99669,15.6256643 C343.239267,15.3009978 342.475425,14.9896647 341.711583,14.6793316 C341.557531,14.6166649 341.393006,14.5789983 341.23321,14.529665 C340.870039,14.557665 340.592002,14.7056649 340.373762,14.975998 C339.465665,16.1009973 338.555203,17.2236632 337.649133,18.3499958 C337.275489,18.8149955 337.270421,19.2376619 337.621093,19.7243282 C338.106222,20.3969944 338.594054,21.0676606 339.079183,21.7399935 C339.27614,22.01266 339.126817,22.6689929 338.831889,22.8289928 C338.082573,23.2356592 337.331569,23.6383256 336.584281,24.0483253 C336.124489,24.3009918 335.918411,24.6899916 336.029558,25.1873246 C336.356919,26.6529903 336.698131,28.1159893 337.046775,29.5773216 C337.147112,29.9983214 337.531229,30.2883212 337.970075,30.3136545 C338.702498,30.3556545 339.434922,30.4156544 340.167345,30.4183211 C340.61565,30.4199877 340.959903,30.5156543 341.200103,30.9193207 C341.287939,31.0669873 341.329493,31.1816539 341.297737,31.3513205 C341.146049,32.1716532 341.004835,32.9943194 340.867674,33.8169855 C340.775784,34.3686518 340.978484,34.7463182 341.493005,34.9919847 C342.795016,35.6129843 344.09804,36.2316505 345.40174,36.8493168 C345.945653,37.10665 346.356121,37.0229834 346.763548,36.5736503 C347.246312,36.040984 347.746644,35.5223177 348.199341,34.9656514 C348.466568,34.6366516 348.753051,34.486985 349.179059,34.5396517 C349.350678,34.560985 349.470272,34.5976516 349.585135,34.7279849 C350.140871,35.3576511 350.702689,35.9823174 351.270925,36.6016503 C351.646934,37.01065 352.050645,37.10765 352.540504,36.8789834 C353.898258,36.2439839 355.250606,35.597651 356.600252,34.9459847 C357.03099,34.7379849 357.227947,34.3226518 357.148894,33.8593188 C357.006666,33.0276527 356.862411,32.1963199 356.716466,31.3653204 C356.651602,30.995654 357.049571,30.4706544 357.426931,30.4489877 C358.243475,30.4016544 359.060357,30.3586545 359.877576,30.3213211 C360.529258,30.2913212 360.862699,30.028988 361.006617,29.4076551 C361.324856,28.034656 361.641744,26.6616569 361.957618,25.2879912 C362.090387,24.7103249 361.9137,24.3139918 361.392423,24.0293253" id="Fill-6"></path>
        </g>
    </g>
</svg>