<?xml version="1.0" encoding="UTF-8"?>
<svg width="33px" height="40px" viewBox="0 0 33 40" version="1.1" xmlns="http://www.w3.org/2000/svg" xmlns:xlink="http://www.w3.org/1999/xlink">
    <!-- Generator: Sketch 51.2 (57519) - http://www.bohemiancoding.com/sketch -->
    <title>SHOPPING</title>
    <desc>Created with Sketch.</desc>
    <defs>
        <polygon id="path-1" points="2.21677162e-05 0 32.8644324 0 32.8644324 39.847945 2.21677162e-05 39.847945"></polygon>
    </defs>
    <g id="NUMU-Prototype" stroke="none" stroke-width="1" fill="none" fill-rule="evenodd">
        <g id="Home-Page-/-Categories" transform="translate(-86.000000, -310.000000)">
            <g id="SHOPPING" transform="translate(86.000000, 310.000000)">
                <g id="Group-3">
                    <mask id="mask-2" fill="white">
                        <use xlink:href="#path-1"></use>
                    </mask>
                    <g id="Clip-2"></g>
                    <path d="M23.6492805,11.4483119 L23.6462481,10.0255596 C23.641967,8.02977982 22.7593508,6.1606055 21.1607238,4.76225688 C19.5915292,3.38959633 17.5144914,2.63455046 15.309913,2.63455046 L15.2879724,2.63455046 C14.1863076,2.63711927 13.1354805,2.83179817 12.1725941,3.18005505 C12.2362751,3.11913761 12.3001346,3.05840367 12.3666697,2.9993211 C13.7417886,1.77950459 15.5771238,1.10537615 17.5348265,1.10078899 L17.5542697,1.10078899 C19.5046589,1.10078899 21.3351778,1.76629358 22.7106535,2.97583486 C24.0677562,4.16904587 24.8169454,5.75069725 24.820513,7.43106422 L24.840313,11.4455596 L23.6492805,11.4483119 Z M23.6649778,18.7217064 L23.6631941,17.9097798 C24.0028265,18.0681284 24.2336481,18.3725321 24.23454,18.7220734 C24.2356103,19.2351009 23.7407886,19.654 23.1314481,19.6554679 C22.8321292,19.6576697 22.5452968,19.5549174 22.3339184,19.3699633 C22.1346697,19.1958349 22.0247886,18.9673945 22.0242535,18.727211 C22.02354,18.3773028 22.2536481,18.0716147 22.5929238,17.9117982 L22.5947076,18.7240917 C22.5954211,19.0277615 22.8348049,19.2732661 23.1298427,19.2732661 L23.1310914,19.2732661 C23.4264859,19.2727156 23.6656914,19.0257431 23.6649778,18.7217064 Z M8.04028054,14.0563853 L8.03831838,13.1351009 L22.5827562,13.1022569 L22.58454,14.0233578 L8.04028054,14.0563853 Z M8.05044811,18.7571193 L8.04866432,17.9615229 C8.37010216,18.1240917 8.58647514,18.4191376 8.58718865,18.7571193 C8.58754541,18.9976697 8.47855622,19.2262936 8.28019946,19.4015229 C8.06971297,19.5870275 7.78698324,19.6897798 7.48391838,19.6905138 L7.48070757,19.6905138 C7.17906973,19.6905138 6.89705351,19.5892294 6.68638865,19.4050092 C6.48731838,19.2308807 6.3774373,19.0026239 6.37690216,18.7622569 C6.37601027,18.4013394 6.62110216,18.0877615 6.97839405,17.9325321 L6.98017784,18.7596881 C6.98089135,19.0631743 7.22009676,19.3088624 7.51531297,19.3088624 L7.51656162,19.3088624 C7.81195622,19.3081284 8.05116162,19.061156 8.05044811,18.7571193 Z M9.27126973,6.52904587 C9.22881568,6.83785321 9.20509135,7.15051376 9.20580486,7.46684404 L9.22649676,11.3870275 C9.22667514,11.4193211 9.23077784,11.4505138 9.23595081,11.481156 L8.03475081,11.4837248 L8.03171838,10.0609725 C8.02886432,8.75473394 8.48640486,7.53877064 9.27126973,6.52904587 Z M10.7885562,5.1073945 C12.0266805,4.25308257 13.5899886,3.7393211 15.2904697,3.73546789 L15.3100914,3.73546789 C17.2608373,3.73546789 19.0915346,4.39748624 20.467367,5.60097248 C21.8235778,6.78721101 22.5724103,8.35950459 22.5759778,10.0281284 L22.5790103,11.4508807 L16.0687346,11.4655596 L10.2876697,11.4787706 C10.2930211,11.4470275 10.2969454,11.4145505 10.296767,11.3813394 L10.2760751,7.46244037 C10.2744697,6.64372477 10.4514211,5.84776147 10.7885562,5.1073945 Z M6.26309676,14.060422 C6.3130427,13.7327156 6.58881568,13.4461101 6.96822649,13.2820734 L6.97001027,14.0589541 L6.26309676,14.060422 Z M30.4053616,35.6973028 L30.3980481,35.6973028 L30.5981886,37.3391376 C31.9658157,37.2442752 32.9991616,36.1692294 32.8502157,34.9429908 L30.5443184,15.9429908 L30.2885238,13.834367 C30.2878103,13.8283119 30.2862049,13.8222569 30.285313,13.8162018 C30.2751454,13.7373028 30.2619454,13.6593211 30.2444643,13.5828073 C30.239113,13.560422 30.2312643,13.5391376 30.2255562,13.5169358 C30.2100373,13.4573028 30.1946968,13.3976697 30.1748968,13.3398716 C30.1670481,13.3173028 30.1563454,13.2954679 30.14814,13.2730826 C30.126913,13.2171193 30.1062211,13.1609725 30.0812481,13.106844 C30.0716157,13.0859266 30.0594859,13.0661101 30.04914,13.0455596 C30.0223832,12.9912477 29.9954481,12.9367523 29.964767,12.8846422 C29.9535292,12.8653761 29.9399724,12.8473945 29.9280211,12.8283119 C29.8955562,12.7762018 29.8630914,12.7240917 29.8268805,12.6741835 C29.8154643,12.6585872 29.8022643,12.6442752 29.7906697,12.6288624 C29.7514265,12.5771193 29.7118265,12.5257431 29.6688373,12.4765688 C29.6561724,12.4622569 29.6419022,12.4494128 29.6288805,12.4352844 C29.5844643,12.386844 29.5398697,12.3387706 29.4918859,12.2932661 C29.4776157,12.2796881 29.4615616,12.267578 29.4469346,12.254367 C29.3982373,12.2099633 29.3493616,12.1659266 29.2972751,12.1248257 C29.2824697,12.1128991 29.2660589,12.1026239 29.2508968,12.0912477 C29.1973832,12.0503303 29.1433346,12.0099633 29.0866103,11.9723486 C29.0693076,11.9609725 29.0503995,11.9510642 29.0329184,11.940055 C28.9765508,11.9044587 28.9201832,11.8690459 28.86114,11.8369358 C28.8400914,11.8255596 28.8176157,11.8160183 28.7962103,11.8050092 C28.7387724,11.7754679 28.681513,11.7459266 28.6219346,11.7196881 C28.5974968,11.7090459 28.5718103,11.7006055 28.5470157,11.6903303 C28.4886859,11.6664771 28.430713,11.6422569 28.3704211,11.6215229 C28.3418805,11.6117982 28.3120914,11.6046422 28.2831941,11.5954679 C28.2250427,11.5773028 28.1674265,11.5585872 28.1078481,11.5435413 C28.0744914,11.5351009 28.0395292,11.5294128 28.0054589,11.5218899 C27.9490914,11.5095963 27.8932589,11.4962018 27.8358211,11.4866606 C27.7974697,11.4802385 27.7580481,11.4771193 27.71934,11.4721651 C27.6647562,11.4650092 27.6107076,11.4563853 27.5552319,11.4519817 C27.5125995,11.4483119 27.4688968,11.4484954 27.4259076,11.4464771 C27.3745346,11.4442752 27.3236968,11.440055 27.2716103,11.440055 L27.2637616,11.440055 L25.9105832,11.4433578 L25.8907832,7.42702752 C25.8865022,5.42207339 25.0040643,3.54409174 23.4061508,2.13913761 C21.8367778,0.759137615 19.7593832,-0.000128440367 17.5542697,-0.000128440367 L17.5323292,-0.000128440367 C15.3191886,0.00500917431 13.2362643,0.774 11.6677832,2.16574312 C10.9380373,2.81289908 10.36134,3.55987156 9.94857243,4.37143119 C8.1198373,5.73583486 6.95663189,7.78188991 6.96144811,10.0635413 L6.96465892,11.5628073 C5.74330216,11.8250092 4.79896703,12.7391376 4.66464811,13.887211 L4.63307514,14.1585872 C4.17054,14.2701468 3.74992378,14.474367 3.4024427,14.7505138 C2.86445351,15.1782202 2.50002649,15.7747339 2.42029135,16.4523486 L0.0164643243,36.8884954 C0.0127183784,36.9195046 0.0136102703,36.9499633 0.0112913514,36.980789 C0.00594,37.0484954 -0.000481621622,37.1163853 5.35135135e-05,37.1829908 C0.000231891892,37.2171193 0.00504810811,37.2503303 0.00683189189,37.2844587 C0.00986432432,37.3466606 0.0112913514,37.4094128 0.0193183784,37.4706972 C0.0239562162,37.5070275 0.0332318919,37.5418899 0.0398318919,37.5776697 C0.0498210811,37.6356514 0.0582048649,37.6938165 0.0726535135,37.7505138 C0.0817508108,37.7861101 0.0953075676,37.8206055 0.106188649,37.8558349 C0.122777838,37.9108807 0.137583243,37.9662936 0.158275135,38.0198716 C0.171475135,38.0545505 0.188956216,38.087211 0.203761622,38.121156 C0.226594054,38.173633 0.247999459,38.226844 0.274399459,38.2778532 C0.291523784,38.3103303 0.312394054,38.341156 0.330767027,38.3730826 C0.359842703,38.4231743 0.386956216,38.4738165 0.419242703,38.5220734 C0.440112973,38.5532661 0.464550811,38.5822569 0.486848108,38.6125321 C0.521096757,38.6591376 0.553561622,38.7066606 0.590842703,38.7512477 C0.616172432,38.7813394 0.644891351,38.8088624 0.671648108,38.8380367 C0.709821081,38.8802385 0.746567027,38.9233578 0.787950811,38.9633578 C0.81774,38.9923486 0.850918378,39.0187706 0.882312973,39.0464771 C0.924053514,39.0837248 0.964188649,39.1220734 1.00824811,39.1571193 C1.04124811,39.1831743 1.07728054,39.2062936 1.11152919,39.2312477 C1.15737243,39.2646422 1.20214541,39.2993211 1.25030757,39.3305138 C1.28794541,39.3547339 1.3284373,39.3754679 1.36732378,39.3980367 C1.41530757,39.4261101 1.4620427,39.4560183 1.51198865,39.4817064 C1.55372919,39.5031743 1.59814541,39.520789 1.64095622,39.5406055 C1.69125892,39.5637248 1.74031297,39.5884954 1.79222108,39.6094128 C1.83717243,39.627211 1.8844427,39.6409725 1.9306427,39.6571193 C1.98326432,39.6754679 2.0346373,39.6956514 2.08850757,39.7114312 C2.13684811,39.7255596 2.18768595,39.7352844 2.23709676,39.747211 C2.29132378,39.7606055 2.34412378,39.7758349 2.39942108,39.7862936 C2.45115081,39.7962018 2.5048427,39.8013394 2.55746432,39.8088624 C2.61258324,39.8169358 2.66698865,39.8270275 2.72317784,39.8323486 C2.77740486,39.8376697 2.8332373,39.8376697 2.88817784,39.8402385 C2.94365351,39.8428073 2.99805892,39.847945 3.05424811,39.847945 L3.06227514,39.847945 L28.1642157,39.7910642 C29.6245995,39.7877615 30.7610481,38.673633 30.6053238,37.3978532 L28.0439886,16.3993211 C27.8786319,15.0442752 26.57754,14.0176697 25.0270751,14.0178532 L25.0270751,15.6692294 L25.0274319,15.6692294 C25.8361995,15.6692294 26.3959508,16.1549174 26.4508914,16.6050092 L29.0124049,37.6035413 C29.0157941,37.6305138 29.0259616,37.7134495 28.9212535,37.8356514 C28.7960319,37.9820734 28.5302481,38.1389541 28.1604697,38.1396881 L3.05424811,38.1965688 C2.55550216,38.1965688 2.09385892,38.0064771 1.81933459,37.687945 C1.65594,37.4982202 1.58565892,37.2960183 1.61027514,37.086844 L4.01410216,16.6508807 C4.06690216,16.2015229 4.62397784,15.7154679 5.43167514,15.713633 L6.97357784,15.7103303 L6.97696703,17.3510642 C6.31785892,17.5446422 5.84034,18.1046422 5.84176703,18.7633578 C5.84265892,19.1673945 6.01943189,19.5442752 6.33979946,19.8242752 C6.64714541,20.0930826 7.05206432,20.2409725 7.48070757,20.2409725 L7.48516703,20.2409725 C7.91541568,20.240055 8.32158324,20.0903303 8.62875081,19.8191376 C8.94786973,19.5374862 9.1230373,19.1598716 9.12232378,18.7560183 C9.12089676,18.1198716 8.67263189,17.5787706 8.04741568,17.3706972 L8.04384811,15.7077615 L22.5881076,15.6747339 L22.5916751,17.326844 C21.9498697,17.5294128 21.4876914,18.0806055 21.4891184,18.7283119 C21.4900103,19.1323486 21.6669616,19.5092294 21.9873292,19.7892294 C22.2944968,20.0580367 22.6994157,20.2059266 23.1282373,20.2059266 L23.1326968,20.2059266 C24.0370751,20.2037248 24.7714589,19.5374862 24.7696751,18.7209725 C24.7682481,18.0734495 24.3044643,17.5235413 23.6619454,17.3240917 L23.6583778,15.6723486 L25.0238643,15.6692294 L25.0270751,14.0178532 L25.0192265,14.0178532 L23.6548103,14.0209725 L23.6530265,13.0996881 L27.2683995,13.0914312 L27.2716103,11.440422 L27.2716103,13.0914312 L27.271967,13.0914312 C27.9935076,13.0914312 28.6321022,13.5163853 28.6954265,14.0389541 L31.2571184,35.147578 C31.2608643,35.1767523 31.271567,35.2657431 31.1622211,35.3932661 C31.0368211,35.5398716 30.7722859,35.6963853 30.4053616,35.6973028 Z" id="Fill-1" fill="#4CA585" mask="url(#mask-2)"></path>
                </g>
            </g>
        </g>
    </g>
</svg>