<?xml version="1.0" encoding="UTF-8"?>
<svg width="20px" height="40px" viewBox="0 0 20 40" version="1.1" xmlns="http://www.w3.org/2000/svg" xmlns:xlink="http://www.w3.org/1999/xlink">
    <!-- Generator: Sketch 51.2 (57519) - http://www.bohemiancoding.com/sketch -->
    <title>CELL PROVIDER</title>
    <desc>Created with Sketch.</desc>
    <defs>
        <polygon id="path-1" points="0 0 19.9269023 0 19.9269023 40 0 40"></polygon>
    </defs>
    <g id="NUMU-Prototype" stroke="none" stroke-width="1" fill="none" fill-rule="evenodd">
        <g id="Home-Page-/-Categories" transform="translate(-261.000000, -471.000000)">
            <g id="CELL-PROVIDER" transform="translate(261.000000, 471.000000)">
                <g id="Group-16">
                    <g id="Group-3">
                        <mask id="mask-2" fill="white">
                            <use xlink:href="#path-1"></use>
                        </mask>
                        <g id="Clip-2"></g>
                        <path d="M17.6136692,0 L2.31321805,0 C1.03772932,0 -1.5037594e-05,1.08677165 -1.5037594e-05,2.42251969 L-1.5037594e-05,37.5774803 C-1.5037594e-05,38.9132283 1.03772932,40 2.31321805,40 L17.6136692,40 C18.8891579,40 19.9269023,38.9132283 19.9269023,37.5774803 L19.9269023,2.42251969 C19.9269023,1.08677165 18.8891579,0 17.6136692,0 M17.6136692,1.1023622 C18.3069023,1.1023622 18.8742707,1.69637795 18.8742707,2.42251969 L18.8742707,37.5774803 C18.8742707,38.303622 18.3069023,38.8976378 17.6136692,38.8976378 L2.31321805,38.8976378 C1.61998496,38.8976378 1.05261654,38.303622 1.05261654,37.5774803 L1.05261654,2.42251969 C1.05261654,1.69637795 1.61998496,1.1023622 2.31321805,1.1023622 L17.6136692,1.1023622" id="Fill-1" fill="#4CA585" mask="url(#mask-2)"></path>
                    </g>
                    <path d="M16.6481021,4.40944882 L3.35189793,4.40944882 C2.74895557,4.40944882 2.2556391,4.92641547 2.2556391,5.55826361 L2.2556391,36.1740199 C2.2556391,36.805868 2.74895557,37.3228346 3.35189793,37.3228346 L16.6481021,37.3228346 C17.2510444,37.3228346 17.7443609,36.805868 17.7443609,36.1740199 L17.7443609,5.55826361 C17.7443609,4.92641547 17.2510444,4.40944882 16.6481021,4.40944882 M16.6481021,5.04066573 C16.9205103,5.04066573 17.1420209,5.27279576 17.1420209,5.55826361 L17.1420209,36.1740199 C17.1420209,36.4594877 16.9205103,36.6916177 16.6481021,36.6916177 L3.35189793,36.6916177 C3.07964024,36.6916177 2.85797912,36.4594877 2.85797912,36.1740199 L2.85797912,5.55826361 C2.85797912,5.27279576 3.07964024,5.04066573 3.35189793,5.04066573 L16.6481021,5.04066573" id="Fill-4" fill="#4CA585"></path>
                    <path d="M10,2.20472441 C9.70920721,2.20472441 9.47368421,2.45149428 9.47368421,2.75598268 C9.47368421,3.06031675 9.70920721,3.30708661 10,3.30708661 C10.2907928,3.30708661 10.5263158,3.06031675 10.5263158,2.75598268 C10.5263158,2.45149428 10.2907928,2.20472441 10,2.20472441" id="Fill-6" fill="#4CA585"></path>
                    <path d="M6.459149,19.0551181 L5.5707778,19.0551181 C5.23617332,19.0551181 4.96240602,19.3490932 4.96240602,19.7085555 L4.96240602,23.7560114 C4.96240602,24.1154737 5.23617332,24.4094488 5.5707778,24.4094488 L6.459149,24.4094488 C6.79375348,24.4094488 7.06766917,24.1154737 7.06766917,23.7560114 L7.06766917,19.7085555 C7.06766917,19.3490932 6.79375348,19.0551181 6.459149,19.0551181" id="Fill-8" fill="#4CA585"></path>
                    <path d="M9.11976869,17.1653543 L8.32384033,17.1653543 C7.96371391,17.1653543 7.66917293,17.4793132 7.66917293,17.8631814 L7.66917293,23.5541414 C7.66917293,23.9380096 7.96371391,24.2519685 8.32384033,24.2519685 L9.11976869,24.2519685 C9.47989511,24.2519685 9.77443609,23.9380096 9.77443609,23.5541414 L9.77443609,17.8631814 C9.77443609,17.4793132 9.47989511,17.1653543 9.11976869,17.1653543" id="Fill-10" fill="#4CA585"></path>
                    <path d="M11.6427734,15.4330709 L10.9136176,15.4330709 C10.53524,15.4330709 10.2255639,15.7616971 10.2255639,16.1632289 L10.2255639,23.5218105 C10.2255639,23.9233423 10.53524,24.2519685 10.9136176,24.2519685 L11.6427734,24.2519685 C12.021151,24.2519685 12.3308271,23.9233423 12.3308271,23.5218105 L12.3308271,16.1632289 C12.3308271,15.7616971 12.021151,15.4330709 11.6427734,15.4330709" id="Fill-12" fill="#4CA585"></path>
                    <path d="M14.1737908,13.7007874 L13.4953821,13.7007874 C13.1030565,13.7007874 12.7819549,14.0405201 12.7819549,14.4557664 L12.7819549,23.4971465 C12.7819549,23.9122358 13.1030565,24.2519685 13.4953821,24.2519685 L14.1737908,24.2519685 C14.5662648,24.2519685 14.887218,23.9122358 14.887218,23.4971465 L14.887218,14.4557664 C14.887218,14.0405201 14.5662648,13.7007874 14.1737908,13.7007874" id="Fill-14" fill="#4CA585"></path>
                </g>
            </g>
        </g>
    </g>
</svg>